<svg width="72" height="17" viewBox="0 0 72 17" fill="none" xmlns="http://www.w3.org/2000/svg">
<g clip-path="url(#clip0_520_6239)">
<path d="M11.7821 15.3948C11.5897 15.5284 11.3879 15.6477 11.1783 15.7518C10.7606 15.9654 10.3223 16.1355 9.87014 16.2596C8.80431 16.548 7.68552 16.5783 6.60577 16.3478C5.50373 16.1332 4.45606 15.6979 3.52531 15.0677C2.9609 14.6719 2.44918 14.2053 2.00258 13.6793C1.43226 13.0318 0.965502 12.2994 0.618996 11.5081C0.466048 11.162 0.34246 10.8036 0.24955 10.4366C-0.237466 8.44808 -0.004309 6.53831 0.884758 4.70572C1.20825 4.02748 1.63701 3.40516 2.155 2.86203C2.16807 2.85236 2.17878 2.83984 2.18631 2.8254C2.19384 2.81096 2.198 2.795 2.19847 2.7787C2.19895 2.76241 2.19572 2.74622 2.18904 2.73137C2.18236 2.71652 2.1724 2.70338 2.15992 2.69297C2.08784 2.6202 2.00774 2.55592 1.92116 2.50138C1.68318 2.33725 1.42685 2.2017 1.15742 2.09752C1.12263 2.08292 1.08949 2.06463 1.05857 2.04295C0.966704 1.98016 0.967136 1.90117 1.05685 1.83665C1.34804 1.62198 1.66801 1.44974 2.00724 1.32504C2.50411 1.13688 3.04282 1.08895 3.5649 1.18646C3.71383 1.21333 3.859 1.25805 3.99731 1.31967C4.01814 1.33082 4.04158 1.33614 4.06516 1.33507C4.08875 1.33401 4.11161 1.32659 4.13136 1.31361C4.97701 0.82542 5.9042 0.496113 6.86748 0.341834C7.35039 0.257747 7.84024 0.220506 8.33026 0.230626C9.89818 0.293766 11.3455 0.733747 12.6487 1.61882C13.5482 2.22748 14.3164 3.01184 14.9074 3.92508C15.4984 4.83833 15.9002 5.86175 16.0887 6.93429C16.1774 7.37506 16.2153 7.82461 16.2018 8.27407C16.1862 8.53876 16.1679 8.81522 16.0486 9.06544C15.9608 9.24862 15.8422 9.3936 15.6327 9.44202C15.5633 9.45982 15.4905 9.46021 15.4208 9.44314C15.3512 9.42607 15.2868 9.39208 15.2333 9.34415C15.0727 9.19466 14.9389 9.0187 14.8374 8.82388C14.585 8.39812 14.2794 8.00655 13.9279 7.65871C13.5304 7.28125 13.0539 6.99766 12.5333 6.82863C11.9093 6.60696 11.2473 6.51321 10.5865 6.55295C10.2498 6.57548 9.91792 6.64498 9.60033 6.75943C9.08353 6.94023 8.59467 7.19322 8.14816 7.51095C7.40073 8.03437 6.84745 8.79207 6.57506 9.66522C6.38616 10.2571 6.25427 10.8553 6.26971 11.4791C6.28615 12.3217 6.56687 13.1377 7.07192 13.8108C7.40416 14.2663 7.81852 14.6551 8.29351 14.9571C8.31497 14.9758 8.34153 14.9876 8.36974 14.9909C8.39795 14.9943 8.42651 14.989 8.45171 14.9758C8.47863 14.9608 8.50065 14.9382 8.51511 14.9109C8.52957 14.8835 8.53586 14.8526 8.53322 14.8218C8.5327 14.1994 8.70255 13.6411 9.15092 13.191C9.19871 13.1319 9.26177 13.0873 9.33318 13.0618C9.40771 13.0407 9.43221 13.0565 9.42315 13.1363C9.40438 13.2975 9.39444 13.4596 9.39339 13.6219C9.38094 13.9669 9.44718 14.3101 9.58704 14.6253C9.80761 15.0825 10.1862 15.3293 10.673 15.4203C11.0408 15.4851 11.4177 15.4763 11.7821 15.3943" fill="white"/>
<path d="M24.4283 12.3484C24.3903 12.351 24.3526 12.3409 24.3209 12.3198C24.2892 12.2986 24.2653 12.2675 24.253 12.2313L22.7359 9.12608H21.3702C21.3607 9.12471 21.351 9.12558 21.3419 9.12862C21.3328 9.13166 21.3245 9.13678 21.3177 9.14358C21.3109 9.15039 21.3057 9.15869 21.3027 9.16783C21.2996 9.17696 21.2987 9.18669 21.3 9.19624V12.2317C21.3022 12.2476 21.3007 12.2637 21.2956 12.279C21.2905 12.2942 21.282 12.308 21.2707 12.3193C21.2594 12.3306 21.2456 12.3392 21.2305 12.3443C21.2154 12.3494 21.1992 12.351 21.1834 12.3488H20.0395C20.0236 12.351 20.0075 12.3494 19.9924 12.3443C19.9772 12.3392 19.9635 12.3306 19.9522 12.3193C19.9409 12.308 19.9324 12.2942 19.9273 12.279C19.9222 12.2637 19.9207 12.2476 19.9228 12.2317V4.49648C19.9207 4.48059 19.9222 4.46441 19.9273 4.44921C19.9324 4.43401 19.9409 4.4202 19.9522 4.40886C19.9635 4.39752 19.9772 4.38896 19.9924 4.38384C20.0075 4.37873 20.0236 4.3772 20.0395 4.37938H23.1094C23.4537 4.37566 23.7957 4.43519 24.1186 4.55503C24.4135 4.66474 24.6848 4.82978 24.9182 5.04135C25.1458 5.25115 25.3268 5.50675 25.4493 5.79149C25.58 6.09676 25.6456 6.42614 25.6419 6.75841C25.6534 7.24362 25.5103 7.71984 25.2334 8.11767C24.9607 8.50087 24.5779 8.79123 24.1362 8.94983L25.8052 12.1963C25.8165 12.2113 25.823 12.2294 25.824 12.2481C25.8251 12.2669 25.8205 12.2856 25.811 12.3018C25.802 12.3167 25.7891 12.329 25.7737 12.3372C25.7583 12.3454 25.741 12.3493 25.7236 12.3484H24.4283ZM23.0626 7.88356C23.4282 7.88356 23.722 7.78191 23.9439 7.57861C24.0552 7.47424 24.1425 7.34684 24.1999 7.20522C24.2574 7.0636 24.2834 6.91115 24.2764 6.75841C24.2764 6.40677 24.1656 6.12938 23.9439 5.92625C23.7222 5.72312 23.4284 5.62158 23.0626 5.62164H21.3702C21.3607 5.62026 21.351 5.62111 21.3419 5.62414C21.3328 5.62717 21.3245 5.63228 21.3177 5.63908C21.3109 5.64588 21.3057 5.65417 21.3027 5.66331C21.2996 5.67244 21.2987 5.68216 21.3 5.69171V7.81307C21.2987 7.82264 21.2995 7.8324 21.3026 7.84157C21.3056 7.85074 21.3107 7.85908 21.3175 7.86592C21.3244 7.87276 21.3327 7.87792 21.3418 7.88098C21.3509 7.88404 21.3606 7.88493 21.3702 7.88356H23.0626Z" fill="white"/>
<path d="M29.8904 12.348C29.8746 12.3503 29.8584 12.3488 29.8432 12.3437C29.8281 12.3386 29.8143 12.33 29.803 12.3187C29.7916 12.3073 29.7831 12.2935 29.778 12.2783C29.7729 12.2631 29.7713 12.2469 29.7735 12.2309V11.8208H29.762C29.611 12.0311 29.405 12.1953 29.1668 12.2953C28.8527 12.4259 28.5146 12.4879 28.1748 12.4772C27.9278 12.4787 27.682 12.4431 27.4454 12.3717C27.2261 12.307 27.0218 12.1994 26.8441 12.0551C26.6697 11.9106 26.5301 11.7285 26.4357 11.5222C26.329 11.2807 26.2772 11.0185 26.2838 10.7544C26.2838 10.1372 26.4842 9.68395 26.8851 9.39461C27.2859 9.10528 27.8364 8.96075 28.5365 8.96104H29.6805C29.69 8.96241 29.6997 8.96154 29.7088 8.95849C29.718 8.95544 29.7263 8.95029 29.7331 8.94346C29.7399 8.93663 29.745 8.92829 29.7481 8.91912C29.7511 8.90995 29.752 8.9002 29.7507 8.89062V8.62109C29.7507 8.29301 29.6612 8.05466 29.4821 7.90604C29.3031 7.75741 28.9763 7.68321 28.5016 7.68345C28.2365 7.67533 27.972 7.71297 27.7196 7.79474C27.538 7.85754 27.3683 7.95075 27.2176 8.07042C27.1478 8.12499 27.0931 8.11702 27.0542 8.04695L26.6224 7.27334C26.6127 7.26232 26.6055 7.24927 26.6014 7.23514C26.5972 7.22101 26.5962 7.20613 26.5985 7.19157C26.6007 7.17701 26.6061 7.16313 26.6143 7.1509C26.6224 7.13867 26.6332 7.1284 26.6458 7.12082C26.8951 6.94502 27.1709 6.81051 27.4627 6.72241C27.8457 6.61213 28.2432 6.56071 28.6416 6.56989C29.4976 6.56989 30.1027 6.72611 30.4567 7.03854C30.8107 7.35098 30.9877 7.85106 30.9878 8.53881V12.2304C30.99 12.2463 30.9885 12.2626 30.9833 12.2778C30.9782 12.293 30.9697 12.3068 30.9583 12.3182C30.947 12.3295 30.9332 12.3381 30.918 12.3432C30.9028 12.3483 30.8867 12.3498 30.8708 12.3475L29.8904 12.348ZM28.5016 11.4104C28.9061 11.4104 29.2154 11.3324 29.4297 11.1765C29.644 11.0206 29.751 10.7785 29.7508 10.45V10.016C29.7521 10.0065 29.7512 9.99671 29.7482 9.98754C29.7451 9.97836 29.74 9.97003 29.7332 9.96319C29.7264 9.95635 29.7181 9.9512 29.7089 9.94813C29.6998 9.94507 29.6901 9.94418 29.6805 9.94554H28.7464C28.3267 9.94554 28.0193 10.0062 27.8245 10.1274C27.6297 10.2487 27.5324 10.4421 27.5327 10.7077C27.5327 11.1763 27.8556 11.4106 28.5014 11.4104H28.5016Z" fill="white"/>
<path d="M32.178 5.63281C32.1621 5.63505 32.146 5.63356 32.1308 5.62848C32.1156 5.62339 32.1018 5.61484 32.0905 5.60349C32.0791 5.59214 32.0706 5.57831 32.0655 5.56308C32.0604 5.54785 32.0588 5.53163 32.061 5.51571V4.49604C32.0588 4.48012 32.0604 4.46391 32.0655 4.44868C32.0706 4.43344 32.0791 4.41961 32.0905 4.40826C32.1018 4.39692 32.1156 4.38836 32.1308 4.38327C32.146 4.37819 32.1621 4.3767 32.178 4.37894H33.2517C33.2676 4.37676 33.2837 4.37829 33.2988 4.3834C33.314 4.38852 33.3277 4.39708 33.339 4.40842C33.3503 4.41976 33.3588 4.43357 33.3639 4.44877C33.369 4.46397 33.3705 4.48015 33.3684 4.49604V5.51571C33.3705 5.5316 33.369 5.54778 33.3639 5.56298C33.3588 5.57818 33.3503 5.59199 33.339 5.60333C33.3277 5.61467 33.314 5.62323 33.2988 5.62835C33.2837 5.63346 33.2676 5.63499 33.2517 5.63281H32.178ZM32.178 12.348C32.1621 12.3502 32.146 12.3488 32.1308 12.3437C32.1156 12.3386 32.1018 12.33 32.0905 12.3187C32.0791 12.3073 32.0706 12.2935 32.0655 12.2783C32.0604 12.263 32.0588 12.2468 32.061 12.2309V6.81643C32.0589 6.80051 32.0604 6.78431 32.0655 6.76909C32.0706 6.75387 32.0792 6.74005 32.0905 6.72871C32.1019 6.71738 32.1157 6.70883 32.1308 6.70375C32.146 6.69866 32.1621 6.69718 32.178 6.69942H33.2517C33.2676 6.69724 33.2837 6.69876 33.2988 6.70387C33.3139 6.70898 33.3277 6.71754 33.339 6.72887C33.3503 6.7402 33.3588 6.754 33.3639 6.76919C33.369 6.78438 33.3705 6.80055 33.3684 6.81643V12.2309C33.3705 12.2468 33.369 12.263 33.3639 12.2782C33.3588 12.2934 33.3503 12.3072 33.339 12.3185C33.3277 12.3299 33.314 12.3384 33.2988 12.3435C33.2837 12.3486 33.2676 12.3502 33.2517 12.348H32.178Z" fill="white"/>
<path d="M35.056 14.4578C35.0401 14.46 35.024 14.4585 35.0088 14.4534C34.9936 14.4483 34.9798 14.4397 34.9685 14.4283C34.9571 14.4169 34.9486 14.4031 34.9435 14.3878C34.9385 14.3725 34.937 14.3563 34.9392 14.3404V13.4027C34.9369 13.3868 34.9384 13.3706 34.9434 13.3553C34.9485 13.3401 34.957 13.3262 34.9683 13.3149C34.9797 13.3035 34.9935 13.2949 35.0086 13.2899C35.0238 13.2848 35.04 13.2833 35.0558 13.2856H35.266C35.4543 13.2974 35.6406 13.2412 35.7912 13.1271C35.9379 12.987 36.0464 12.8115 36.1065 12.6173L36.2698 12.1367L34.2158 6.81625C34.1924 6.73818 34.2235 6.69918 34.3089 6.69923H35.4648C35.4982 6.69873 35.5307 6.71024 35.5564 6.73171C35.5821 6.75317 35.5992 6.78316 35.6048 6.81625L36.8772 10.5079H36.9007L38.1144 6.81625C38.12 6.78316 38.1371 6.75317 38.1628 6.73171C38.1885 6.71024 38.221 6.69873 38.2544 6.69923H39.3631C39.4488 6.69923 39.48 6.73824 39.4567 6.81625L37.3088 12.6994C37.2057 12.9878 37.0808 13.2679 36.9352 13.5372C36.8281 13.7373 36.6903 13.9193 36.5268 14.0764C36.3864 14.2086 36.2191 14.3086 36.0363 14.3694C35.836 14.4312 35.6273 14.461 35.4178 14.4576L35.056 14.4578Z" fill="white"/>
<path d="M43.6533 12.348C43.6375 12.3502 43.6214 12.3487 43.6062 12.3436C43.5911 12.3384 43.5774 12.3299 43.5661 12.3185C43.5548 12.3072 43.5463 12.2934 43.5412 12.2782C43.5361 12.263 43.5346 12.2468 43.5367 12.231V11.8209H43.5248C43.374 12.0312 43.1679 12.1955 42.9297 12.2953C42.6156 12.426 42.2775 12.488 41.9377 12.4772C41.6907 12.4786 41.4448 12.4431 41.2083 12.3717C40.9891 12.3071 40.7848 12.1995 40.6073 12.0551C40.4328 11.9107 40.2932 11.7285 40.1989 11.5222C40.092 11.2808 40.0402 11.0185 40.047 10.7544C40.047 10.1372 40.2473 9.68396 40.6479 9.39463C41.0486 9.10529 41.5992 8.96076 42.2997 8.96105H43.4433C43.4528 8.96241 43.4626 8.96152 43.4717 8.95846C43.4808 8.95541 43.4891 8.95026 43.4959 8.94343C43.5027 8.9366 43.5078 8.92828 43.5109 8.91911C43.5139 8.90995 43.5148 8.9002 43.5135 8.89064V8.6211C43.5135 8.29302 43.424 8.05467 43.245 7.90605C43.0661 7.75742 42.7393 7.68323 42.2648 7.68346C41.9996 7.67534 41.735 7.71298 41.4825 7.79475C41.301 7.85754 41.1313 7.95076 40.9808 8.07044C40.9107 8.125 40.8563 8.11717 40.8174 8.04696L40.3856 7.27336C40.3759 7.26235 40.3687 7.24933 40.3645 7.23521C40.3603 7.22109 40.3593 7.20623 40.3615 7.19167C40.3637 7.17711 40.3691 7.16322 40.3772 7.15097C40.3854 7.13873 40.3961 7.12844 40.4087 7.12083C40.6581 6.94503 40.934 6.81053 41.2259 6.72242C41.6089 6.61209 42.0064 6.56067 42.4048 6.5699C43.2606 6.5699 43.8655 6.72612 44.2196 7.03855C44.5736 7.35099 44.7507 7.85108 44.7507 8.53882V12.2304C44.7528 12.2463 44.7513 12.2625 44.7462 12.2777C44.7411 12.2929 44.7326 12.3067 44.7213 12.3181C44.71 12.3294 44.6963 12.338 44.6811 12.3431C44.666 12.3482 44.6499 12.3497 44.634 12.3475L43.6533 12.348ZM42.2645 11.4104C42.669 11.4104 42.9783 11.3325 43.1922 11.1766C43.4062 11.0207 43.5132 10.7785 43.5132 10.45V10.0161C43.5146 10.0065 43.5137 9.99673 43.5107 9.98755C43.5076 9.97838 43.5025 9.97004 43.4957 9.9632C43.4889 9.95636 43.4806 9.9512 43.4715 9.94814C43.4623 9.94508 43.4526 9.94419 43.4431 9.94555H42.5097C42.0894 9.94555 41.782 10.0062 41.5874 10.1274C41.3928 10.2487 41.2955 10.4421 41.2956 10.7077C41.2956 11.1763 41.6185 11.4106 42.2645 11.4104Z" fill="white"/>
<path d="M49.3843 12.3478C49.3684 12.35 49.3523 12.3485 49.3371 12.3435C49.3219 12.3384 49.3081 12.3298 49.2968 12.3185C49.2855 12.3071 49.2769 12.2933 49.2718 12.2781C49.2667 12.2628 49.2652 12.2466 49.2674 12.2307V8.97268C49.2674 8.60551 49.1779 8.30861 48.9989 8.08198C48.8198 7.85535 48.5553 7.74203 48.2053 7.74203C47.8627 7.74203 47.5981 7.85535 47.4117 8.08198C47.2253 8.30861 47.1319 8.60551 47.1317 8.97268V12.2307C47.1339 12.2466 47.1324 12.2629 47.1273 12.2781C47.1221 12.2933 47.1136 12.3071 47.1022 12.3185C47.0909 12.3298 47.0771 12.3384 47.0619 12.3435C47.0467 12.3486 47.0306 12.3501 47.0147 12.3478H45.9408C45.925 12.35 45.9089 12.3484 45.8938 12.3433C45.8786 12.3382 45.8649 12.3296 45.8536 12.3183C45.8423 12.307 45.8338 12.2932 45.8287 12.278C45.8236 12.2628 45.8221 12.2466 45.8243 12.2307V6.81625C45.822 6.80035 45.8235 6.78415 45.8285 6.76891C45.8336 6.75368 45.8421 6.73984 45.8534 6.72848C45.8647 6.71713 45.8785 6.70858 45.8937 6.7035C45.9088 6.69843 45.925 6.69696 45.9408 6.69924H47.0146C47.0305 6.697 47.0466 6.69848 47.0618 6.70357C47.077 6.70865 47.0908 6.71719 47.1021 6.72853C47.1135 6.73987 47.122 6.75369 47.1271 6.76891C47.1322 6.78413 47.1338 6.80033 47.1316 6.81625V7.22635H47.1431C47.2881 7.02947 47.4784 6.87069 47.6976 6.7635C47.9708 6.64222 48.2652 6.57671 48.5638 6.57076C48.8624 6.56481 49.1592 6.61855 49.4369 6.72886C49.6693 6.83091 49.8779 6.98057 50.0493 7.16824C50.2231 7.36007 50.3562 7.58541 50.4405 7.83055C50.5324 8.10013 50.5778 8.38349 50.5747 8.66842V12.2311C50.5769 12.2469 50.5754 12.2631 50.5703 12.2783C50.5652 12.2935 50.5567 12.3073 50.5454 12.3187C50.5341 12.33 50.5203 12.3386 50.5052 12.3437C50.49 12.3488 50.4739 12.3503 50.4581 12.3482L49.3843 12.3478Z" fill="white"/>
<path d="M53.714 12.4768C53.1382 12.4768 52.65 12.383 52.2493 12.1956C51.9025 12.0433 51.5815 11.8376 51.2979 11.5861C51.2852 11.5765 51.2749 11.5641 51.2678 11.5499C51.2608 11.5356 51.2571 11.5199 51.2571 11.504C51.2571 11.4881 51.2608 11.4724 51.2678 11.4582C51.2749 11.444 51.2852 11.4316 51.2979 11.422L51.9633 10.7189C51.9728 10.7062 51.9851 10.6959 51.9993 10.6888C52.0135 10.6817 52.0291 10.678 52.0449 10.678C52.0608 10.678 52.0764 10.6817 52.0906 10.6888C52.1048 10.6959 52.1171 10.7062 52.1266 10.7189C52.3474 10.9179 52.6025 11.0748 52.8794 11.1818C53.1627 11.2997 53.466 11.3614 53.7726 11.3636C54.1228 11.3636 54.3834 11.3011 54.5545 11.176C54.6338 11.1238 54.6988 11.0524 54.7436 10.9685C54.7884 10.8846 54.8116 10.7907 54.8111 10.6955C54.8139 10.6167 54.7979 10.5384 54.7644 10.467C54.7309 10.3957 54.6809 10.3334 54.6186 10.2854C54.4901 10.1839 54.243 10.1136 53.8773 10.0744L53.2706 10.0159C52.6946 9.95347 52.2628 9.78158 51.9752 9.50021C51.6877 9.21884 51.5438 8.83593 51.5434 8.35149C51.5434 7.80481 51.7301 7.37123 52.1034 7.05077C52.4768 6.73031 53.0176 6.57011 53.7259 6.57017C54.1348 6.56446 54.5416 6.62986 54.9282 6.76348C55.2574 6.87685 55.5651 7.04531 55.8383 7.26175C55.8523 7.26953 55.8643 7.28046 55.8734 7.29368C55.8825 7.3069 55.8884 7.32205 55.8906 7.33794C55.8929 7.35383 55.8915 7.37004 55.8864 7.38528C55.8814 7.40052 55.873 7.41439 55.8617 7.4258L55.2899 8.11703C55.281 8.12974 55.2696 8.14048 55.2564 8.1486C55.2433 8.15672 55.2286 8.16204 55.2133 8.16424C55.198 8.16644 55.1824 8.16547 55.1675 8.16139C55.1525 8.1573 55.1386 8.1502 55.1265 8.14051C54.9218 8.00275 54.7001 7.89245 54.4669 7.81243C54.2068 7.71886 53.9324 7.6713 53.6561 7.67186C53.3761 7.67186 53.1641 7.72654 53.0202 7.8359C52.9525 7.88315 52.8974 7.94633 52.8598 8.0199C52.8221 8.09348 52.8029 8.17521 52.8039 8.25795C52.8015 8.33359 52.8171 8.40872 52.8496 8.477C52.8821 8.54528 52.9305 8.60472 52.9907 8.6503C53.1152 8.74846 53.3604 8.81688 53.7262 8.85557L54.3329 8.91411C54.9242 8.97665 55.3619 9.15045 55.6461 9.43551C55.9303 9.72058 56.0723 10.0976 56.0721 10.5665C56.0802 10.8259 56.031 11.0839 55.9281 11.322C55.8252 11.56 55.6711 11.7723 55.4769 11.9436C55.0798 12.299 54.4921 12.4767 53.714 12.4768Z" fill="white"/>
<path d="M59.4866 12.4771C58.9108 12.4771 58.4186 12.3404 58.0101 12.067C57.6029 11.7953 57.3036 11.3888 57.164 10.9183C57.102 10.7172 57.0551 10.5116 57.0237 10.3034C56.9618 9.7858 56.9618 9.26263 57.0237 8.74502C57.0552 8.53682 57.1021 8.33127 57.164 8.13009C57.3034 7.65955 57.6028 7.25304 58.0101 6.98137C58.4184 6.70786 58.9105 6.57116 59.4866 6.57127C60.0048 6.5571 60.5153 6.70001 60.9516 6.98137C61.3587 7.25314 61.6581 7.65962 61.7976 8.13009C61.8595 8.33127 61.9062 8.53682 61.9375 8.74502C62 9.26259 62 9.78584 61.9375 10.3034C61.9063 10.5116 61.8595 10.7172 61.7976 10.9183C61.658 11.3887 61.3586 11.7951 60.9516 12.067C60.5153 12.3483 60.0048 12.4912 59.4866 12.4771ZM59.4866 11.3053C59.7215 11.3142 59.953 11.2462 60.1462 11.1117C60.328 10.9735 60.4641 10.7837 60.537 10.5668C60.5834 10.4199 60.6147 10.2687 60.6305 10.1155C60.646 9.96338 60.6539 9.76611 60.654 9.52365C60.6559 9.32813 60.6481 9.13264 60.6305 8.93791C60.6135 8.78298 60.5822 8.62998 60.537 8.48086C60.4642 8.26396 60.328 8.0741 60.1462 7.93599C59.953 7.80141 59.7215 7.73345 59.4866 7.74234C59.2531 7.73021 59.0223 7.79612 58.8301 7.92975C58.638 8.06337 58.4954 8.25719 58.4246 8.48086C58.3793 8.62993 58.348 8.78295 58.3311 8.93791C58.3135 9.13264 58.3057 9.32813 58.3077 9.52365C58.3077 9.76616 58.3155 9.96343 58.3311 10.1155C58.3468 10.2687 58.3781 10.42 58.4246 10.5668C58.4954 10.7905 58.638 10.9843 58.8301 11.1179C59.0223 11.2515 59.2531 11.3175 59.4866 11.3053Z" fill="white"/>
<path d="M63.1398 12.348C63.124 12.3503 63.1078 12.3488 63.0926 12.3438C63.0774 12.3387 63.0636 12.3301 63.0523 12.3188C63.041 12.3074 63.0325 12.2935 63.0274 12.2783C63.0224 12.263 63.021 12.2468 63.0233 12.2309V7.78916C63.0246 7.7796 63.0237 7.76986 63.0207 7.7607C63.0176 7.75155 63.0125 7.74324 63.0057 7.73644C62.9988 7.72964 62.9905 7.72453 62.9814 7.72151C62.9723 7.7185 62.9626 7.71767 62.953 7.71909H62.5795C62.5637 7.72128 62.5475 7.71975 62.5324 7.71462C62.5172 7.70949 62.5034 7.70089 62.4921 7.68951C62.4808 7.67813 62.4723 7.66427 62.4672 7.64902C62.4622 7.63377 62.4607 7.61756 62.4629 7.60164V6.81643C62.4608 6.80055 62.4623 6.78438 62.4674 6.76919C62.4725 6.754 62.481 6.7402 62.4923 6.72887C62.5036 6.71754 62.5174 6.70898 62.5325 6.70387C62.5476 6.69876 62.5637 6.69724 62.5795 6.69942H62.953C62.9626 6.70079 62.9723 6.69992 62.9815 6.69686C62.9906 6.69381 62.9989 6.68866 63.0057 6.68181C63.0125 6.67497 63.0177 6.66663 63.0207 6.65744C63.0238 6.64826 63.0246 6.6385 63.0233 6.62892V6.26585C63.0233 5.60183 63.1807 5.12126 63.4957 4.82412C63.8107 4.52699 64.2756 4.3786 64.8905 4.37894H65.404C65.4198 4.3767 65.436 4.37819 65.4512 4.38327C65.4664 4.38836 65.4802 4.39692 65.4915 4.40826C65.5028 4.41961 65.5114 4.43344 65.5165 4.44868C65.5216 4.46391 65.5231 4.48012 65.521 4.49604V5.43369C65.5231 5.44961 65.5216 5.46582 65.5165 5.48105C65.5114 5.49629 65.5028 5.51012 65.4915 5.52147C65.4802 5.53282 65.4664 5.54137 65.4512 5.54646C65.436 5.55154 65.4198 5.55303 65.404 5.55079H65.0424C64.921 5.54847 64.7996 5.55825 64.6801 5.57997C64.5984 5.59357 64.523 5.63249 64.4645 5.69127C64.4113 5.75097 64.3751 5.82384 64.3594 5.90234C64.3376 6.01428 64.3278 6.12825 64.3303 6.24228V6.62892C64.3289 6.63849 64.3298 6.64825 64.3328 6.65742C64.3358 6.6666 64.341 6.67493 64.3478 6.68177C64.3546 6.68861 64.3629 6.69377 64.372 6.69683C64.3811 6.69989 64.3908 6.70078 64.4004 6.69942H65.404C65.4198 6.69718 65.436 6.69866 65.4512 6.70375C65.4663 6.70883 65.4801 6.71738 65.4915 6.72871C65.5028 6.74005 65.5114 6.75387 65.5165 6.76909C65.5216 6.78431 65.5231 6.80051 65.521 6.81643V7.6013C65.5232 7.61724 65.5217 7.6335 65.5166 7.64877C65.5116 7.66405 65.503 7.67793 65.4917 7.68932C65.4803 7.70071 65.4665 7.7093 65.4513 7.7144C65.4361 7.71951 65.4199 7.72099 65.404 7.71874H64.4004C64.3909 7.71734 64.3812 7.71818 64.3721 7.7212C64.3629 7.72422 64.3546 7.72933 64.3478 7.73613C64.341 7.74294 64.3359 7.75124 64.3328 7.76038C64.3298 7.76953 64.3289 7.77926 64.3303 7.78881V12.2306C64.3324 12.2464 64.3309 12.2626 64.3258 12.2778C64.3207 12.293 64.3122 12.3068 64.3009 12.3182C64.2896 12.3295 64.2758 12.3381 64.2607 12.3432C64.2456 12.3483 64.2295 12.3498 64.2136 12.3476L63.1398 12.348Z" fill="white"/>
<path d="M68.3988 12.4186C67.8307 12.4186 67.428 12.2819 67.1908 12.0085C66.9536 11.7351 66.835 11.321 66.835 10.7662V7.7893C66.8363 7.77975 66.8354 7.77002 66.8324 7.76088C66.8293 7.75173 66.8242 7.74343 66.8174 7.73663C66.8106 7.72983 66.8023 7.72471 66.7932 7.72169C66.784 7.71867 66.7743 7.71783 66.7648 7.71923H66.3913C66.3754 7.72141 66.3593 7.71987 66.3441 7.71473C66.3289 7.70959 66.3152 7.70099 66.3039 7.68961C66.2926 7.67823 66.2841 7.66438 66.279 7.64914C66.274 7.6339 66.2725 7.61769 66.2747 7.60179V6.81658C66.2725 6.80068 66.2739 6.78448 66.279 6.76924C66.284 6.75401 66.2925 6.74017 66.3038 6.72881C66.3152 6.71746 66.3289 6.70891 66.3441 6.70383C66.3593 6.69875 66.3754 6.69729 66.3913 6.69956H66.7648C66.7744 6.70093 66.7841 6.70004 66.7932 6.69698C66.8024 6.69392 66.8107 6.68876 66.8175 6.68192C66.8243 6.67508 66.8294 6.66674 66.8324 6.65757C66.8355 6.6484 66.8363 6.63864 66.835 6.62907V5.08228C66.8327 5.06637 66.8342 5.05015 66.8393 5.0349C66.8443 5.01966 66.8529 5.0058 66.8642 4.99442C66.8755 4.98304 66.8892 4.97444 66.9044 4.96931C66.9196 4.96418 66.9357 4.96265 66.9516 4.96484H68.0254C68.0413 4.96266 68.0574 4.9642 68.0726 4.96934C68.0877 4.97448 68.1015 4.98308 68.1128 4.99446C68.1241 5.00584 68.1326 5.01969 68.1376 5.03493C68.1427 5.05017 68.1442 5.06638 68.142 5.08228V6.62907C68.1406 6.63864 68.1415 6.64841 68.1445 6.65759C68.1475 6.66677 68.1527 6.67512 68.1595 6.68196C68.1663 6.6888 68.1746 6.69395 68.1838 6.69701C68.1929 6.70007 68.2026 6.70094 68.2122 6.69956H68.9592C68.975 6.69739 68.9911 6.69891 69.0062 6.70402C69.0214 6.70913 69.0351 6.71768 69.0464 6.72901C69.0577 6.74034 69.0662 6.75415 69.0713 6.76934C69.0764 6.78453 69.0779 6.80069 69.0758 6.81658V7.60144C69.078 7.61736 69.0765 7.63358 69.0715 7.64882C69.0664 7.66407 69.0579 7.67793 69.0466 7.68931C69.0353 7.70069 69.0215 7.70928 69.0063 7.71442C68.9912 7.71955 68.975 7.72108 68.9592 7.71889H68.2122C68.2027 7.71747 68.193 7.7183 68.1838 7.72132C68.1747 7.72433 68.1664 7.72944 68.1596 7.73624C68.1527 7.74305 68.1476 7.75136 68.1445 7.76051C68.1415 7.76966 68.1406 7.7794 68.142 7.78895V10.7194C68.142 10.9226 68.1848 11.0611 68.2705 11.1352C68.3853 11.2185 68.526 11.258 68.6673 11.2465H68.9595C68.9754 11.2443 68.9915 11.2458 69.0067 11.2509C69.0219 11.2561 69.0356 11.2647 69.0469 11.276C69.0582 11.2874 69.0668 11.3013 69.0718 11.3165C69.0769 11.3318 69.0784 11.348 69.0761 11.3639V12.3015C69.0783 12.3173 69.0768 12.3335 69.0717 12.3487C69.0666 12.3639 69.0581 12.3777 69.0468 12.3891C69.0355 12.4004 69.0217 12.409 69.0066 12.4141C68.9915 12.4192 68.9753 12.4207 68.9595 12.4186H68.3988Z" fill="white"/>
<path d="M70.759 6.07937C70.6445 6.08068 70.5309 6.0588 70.425 6.01502C70.3247 5.97314 70.2337 5.9118 70.157 5.83451C70.0804 5.75723 70.0197 5.66552 69.9784 5.56465C69.935 5.45743 69.9132 5.34261 69.9144 5.22686C69.9135 5.11263 69.9353 4.99937 69.9784 4.89367C70.0197 4.79282 70.0804 4.70113 70.1571 4.62385C70.2337 4.54657 70.3247 4.48522 70.425 4.4433C70.531 4.39973 70.6445 4.37785 70.759 4.37895C70.8743 4.37795 70.9886 4.39982 71.0954 4.4433C71.1958 4.48432 71.2869 4.54557 71.3628 4.62328C71.4386 4.70117 71.4987 4.79305 71.5398 4.89385C71.583 4.99953 71.6048 5.1128 71.6039 5.22704C71.6051 5.34279 71.5833 5.45762 71.5398 5.56482C71.4989 5.66573 71.4388 5.75766 71.3628 5.83548C71.2869 5.91326 71.1959 5.97449 71.0954 6.01537C70.9886 6.05893 70.8743 6.08069 70.759 6.07937ZM70.759 5.933C70.8537 5.93408 70.9476 5.91591 71.035 5.87956C71.1173 5.84549 71.1918 5.79495 71.254 5.73102C71.3167 5.66645 71.3664 5.59027 71.4002 5.5067C71.4707 5.32698 71.4707 5.1271 71.4002 4.94737C71.3669 4.86457 71.3175 4.78929 71.2549 4.72598C71.1922 4.66267 71.1175 4.61261 71.0353 4.57876C70.8578 4.50797 70.66 4.50797 70.4825 4.57876C70.4003 4.61258 70.3256 4.66263 70.2629 4.72594C70.2002 4.78926 70.1508 4.86455 70.1177 4.94737C70.0471 5.12708 70.0471 5.327 70.1177 5.5067C70.1516 5.59018 70.2012 5.66633 70.2637 5.73102C70.3259 5.79483 70.4004 5.84535 70.4825 5.87956C70.5701 5.91597 70.6642 5.93415 70.759 5.933ZM70.4628 5.69309C70.4586 5.69374 70.4543 5.69338 70.4502 5.69205C70.4462 5.69071 70.4425 5.68844 70.4395 5.68541C70.4364 5.68238 70.4342 5.67869 70.4329 5.67462C70.4315 5.67055 70.4312 5.66623 70.4318 5.662V4.7829C70.4312 4.77868 70.4316 4.77437 70.4329 4.77032C70.4343 4.76627 70.4365 4.7626 70.4395 4.75959C70.4426 4.75657 70.4462 4.75431 70.4503 4.75297C70.4543 4.75164 70.4586 4.75127 70.4628 4.75189H70.8164C70.9022 4.74634 70.9871 4.77243 71.055 4.82525C71.0835 4.85115 71.1059 4.88312 71.1204 4.91882C71.135 4.95452 71.1414 4.99304 71.1392 5.03156C71.1413 5.09025 71.1242 5.14803 71.0907 5.19612C71.056 5.24201 71.0082 5.27606 70.9536 5.29364L71.1434 5.66217C71.1524 5.68313 71.1463 5.69326 71.1261 5.69326H71.0023C70.9933 5.69296 70.9845 5.68979 70.9774 5.68421C70.9702 5.67862 70.9649 5.67091 70.9624 5.66217L70.7856 5.31573H70.6176C70.6153 5.31543 70.6129 5.31568 70.6107 5.31644C70.6085 5.31721 70.6064 5.31848 70.6048 5.32015C70.6031 5.32182 70.6018 5.32385 70.6011 5.32609C70.6003 5.32832 70.6001 5.3307 70.6004 5.33305V5.66148C70.601 5.6657 70.6006 5.67001 70.5992 5.67406C70.5979 5.67811 70.5956 5.68179 70.5926 5.68481C70.5896 5.68783 70.586 5.6901 70.5819 5.69145C70.5779 5.6928 70.5736 5.69318 70.5694 5.69257L70.4628 5.69309ZM70.8164 5.16476C70.9194 5.16476 70.9712 5.12033 70.9712 5.03147C70.9712 4.94581 70.9194 4.90285 70.8164 4.90285H70.6174C70.6151 4.90258 70.6127 4.90283 70.6105 4.9036C70.6083 4.90437 70.6063 4.90564 70.6046 4.90731C70.603 4.90898 70.6017 4.911 70.6009 4.91323C70.6002 4.91546 70.5999 4.91783 70.6002 4.92018V5.14675C70.5999 5.14909 70.6001 5.15148 70.6009 5.15371C70.6017 5.15595 70.6029 5.15798 70.6046 5.15965C70.6063 5.16132 70.6083 5.16259 70.6105 5.16336C70.6127 5.16412 70.6151 5.16437 70.6174 5.16407L70.8164 5.16476Z" fill="white"/>
</g>
<defs>
<clipPath id="clip0_520_6239">
<rect width="71.6036" height="16.2735" fill="white" transform="translate(0 0.226562)"/>
</clipPath>
</defs>
</svg>
