<svg width="36" height="36" viewBox="0 0 36 36" fill="none" xmlns="http://www.w3.org/2000/svg">
<path d="M18 0C8.05922 0 0 8.05922 0 18C0 27.9408 8.05922 36 18 36C27.9408 36 36 27.9408 36 18C36 8.05922 27.9408 0 18 0ZM20.5193 25.3245C20.5193 25.9926 20.2539 26.6334 19.7814 27.1059C19.309 27.5783 18.6682 27.8438 18 27.8438C17.3318 27.8438 16.691 27.5783 16.2186 27.1059C15.7461 26.6334 15.4807 25.9926 15.4807 25.3245C15.4807 24.6563 15.7461 24.0155 16.2186 23.543C16.691 23.0706 17.3318 22.8052 18 22.8052C18.6682 22.8052 19.309 23.0706 19.7814 23.543C20.2539 24.0155 20.5193 24.6563 20.5193 25.3245ZM20.854 10.7789L20.5214 19.177C20.4954 19.8284 20.2184 20.4444 19.7484 20.896C19.2784 21.3477 18.6519 21.6 18 21.6C17.3481 21.6 16.7216 21.3477 16.2516 20.896C15.7816 20.4444 15.5046 19.8284 15.4786 19.177L15.146 10.7789C15.1327 10.4394 15.188 10.1008 15.3087 9.78322C15.4294 9.46566 15.613 9.17573 15.8484 8.93083C16.0839 8.68593 16.3663 8.49109 16.6789 8.35799C16.9915 8.22489 17.3277 8.15627 17.6674 8.15625H18.3326C18.6723 8.15627 19.0085 8.22489 19.3211 8.35799C19.6337 8.49109 19.9161 8.68593 20.1516 8.93083C20.387 9.17573 20.5706 9.46566 20.6913 9.78322C20.812 10.1008 20.8673 10.4394 20.854 10.7789Z" fill="#C71919"/>
</svg>
