<svg width="15" height="15" viewBox="0 0 15 15" fill="none" xmlns="http://www.w3.org/2000/svg">
<path d="M7.5 10.125C7.98325 10.125 8.375 9.73325 8.375 9.25C8.375 8.76675 7.98325 8.375 7.5 8.375C7.01675 8.375 6.625 8.76675 6.625 9.25C6.625 9.73325 7.01675 10.125 7.5 10.125Z" fill="#7A3ABF"/>
<path d="M4.58203 10.125C5.06528 10.125 5.45703 9.73325 5.45703 9.25C5.45703 8.76675 5.06528 8.375 4.58203 8.375C4.09878 8.375 3.70703 8.76675 3.70703 9.25C3.70703 9.73325 4.09878 10.125 4.58203 10.125Z" fill="#7A3ABF"/>
<path d="M10.418 10.125C10.9012 10.125 11.293 9.73325 11.293 9.25C11.293 8.76675 10.9012 8.375 10.418 8.375C9.93472 8.375 9.54297 8.76675 9.54297 9.25C9.54297 9.73325 9.93472 10.125 10.418 10.125Z" fill="#7A3ABF"/>
<path d="M11.583 1.66701H11V1.08301C11 0.928258 10.9385 0.779842 10.8291 0.670415C10.7197 0.560987 10.5713 0.499512 10.4165 0.499512C10.2617 0.499512 10.1133 0.560987 10.0039 0.670415C9.89448 0.779842 9.833 0.928258 9.833 1.08301V1.66601H5.167V1.08301C5.167 0.928258 5.10552 0.779842 4.9961 0.670415C4.88667 0.560987 4.73825 0.499512 4.5835 0.499512C4.42875 0.499512 4.28033 0.560987 4.1709 0.670415C4.06148 0.779842 4 0.928258 4 1.08301V1.66601H3.417C2.64361 1.66681 1.90212 1.97439 1.35525 2.52126C0.808375 3.06813 0.500794 3.80962 0.5 4.58301L0.5 11.583C0.500794 12.3564 0.808375 13.0979 1.35525 13.6448C1.90212 14.1916 2.64361 14.4992 3.417 14.5H11.584C12.3572 14.499 13.0985 14.1913 13.6451 13.6444C14.1918 13.0976 14.4992 12.3562 14.5 11.583V4.58301C14.4989 3.80979 14.1912 3.06856 13.6444 2.5219C13.0976 1.97525 12.3562 1.66781 11.583 1.66701ZM1.667 4.58301C1.667 4.11888 1.85137 3.67376 2.17956 3.34557C2.50775 3.01739 2.95287 2.83301 3.417 2.83301H11.584C12.0481 2.83301 12.4932 3.01739 12.8214 3.34557C13.1496 3.67376 13.334 4.11888 13.334 4.58301V5.16601H1.667V4.58301ZM11.584 13.333H3.417C2.95287 13.333 2.50775 13.1486 2.17956 12.8204C1.85137 12.4923 1.667 12.0471 1.667 11.583V6.33301H13.333V11.583C13.333 12.0471 13.1486 12.4923 12.8204 12.8204C12.4922 13.1486 12.0481 13.333 11.584 13.333Z" fill="#7A3ABF"/>
</svg>
