<svg width="32" height="18" viewBox="0 0 32 18" fill="none" xmlns="http://www.w3.org/2000/svg">
<g id="Group">
<path id="Vector" fill-rule="evenodd" clip-rule="evenodd" d="M5.75331 12.0408H32V14.874C31.9977 15.6478 31.6893 16.3893 31.1421 16.9365C30.5949 17.4836 29.8535 17.7921 29.0796 17.7943H2.92038C2.14649 17.7921 1.40495 17.4836 0.857762 16.9364C0.310569 16.3891 0.00219295 15.6475 0 14.8736L0 12.0408H5.75331Z" fill="#D80027"/>
<path id="Vector_2" fill-rule="evenodd" clip-rule="evenodd" d="M5.75331 5.75356H0V2.92037C0.00227536 2.14654 0.310687 1.40506 0.857872 0.857872C1.40506 0.310687 2.14654 0.00227536 2.92038 0H29.0796C29.8535 0.00227536 30.5949 0.310687 31.1421 0.857872C31.6893 1.40506 31.9977 2.14654 32 2.92037V5.75356H5.75331Z" fill="#007A3D"/>
<path id="Vector_3" d="M5.7533 5.75357H32V12.0404H5.7533V5.75357Z" fill="#F5F5F5"/>
<g id="Group_2">
<path id="Vector_4" fill-rule="evenodd" clip-rule="evenodd" d="M5.75331 13.7895V4.00449L1.01838 0.708801C0.699316 0.982298 0.443131 1.32152 0.267361 1.70323C0.0915915 2.08494 0.000389465 2.50013 0 2.92036L0 14.8736C0.000389465 15.2939 0.0915915 15.709 0.267361 16.0908C0.443131 16.4725 0.699316 16.8117 1.01838 17.0852L5.75331 13.7895Z" fill="#6B809B"/>
<path id="Vector_5" fill-rule="evenodd" clip-rule="evenodd" d="M8.26631 12.0407V5.75355L5.75331 4.00449L1.01838 0.708801C0.699316 0.982298 0.443131 1.32152 0.267361 1.70323C0.0915915 2.08494 0.000389465 2.50013 0 2.92036L0 14.8736C0.000389465 15.2939 0.0915915 15.709 0.267361 16.0908C0.443131 16.4725 0.699316 16.8117 1.01838 17.0852L5.75331 13.7895L8.26631 12.0407Z" fill="black"/>
</g>
</g>
</svg>
