<svg width="29" height="42" viewBox="0 0 29 42" fill="none" xmlns="http://www.w3.org/2000/svg">
<g clip-path="url(#clip0_270_3)">
<path d="M14.3 41.4401C12.481 41.4598 10.6667 41.2505 8.9 40.8171C4.078 39.4911 1.11201 36.3741 0.289006 31.4231C-0.200023 28.7827 -0.0947567 26.0665 0.597142 23.4719C1.28904 20.8773 2.5502 18.4694 4.28901 16.4231C11.063 8.18307 23.323 10.4481 27.135 20.5901C28.205 23.4392 28.6421 26.4871 28.416 29.5221C27.975 35.8171 23.516 40.3581 16.949 41.2221C15.958 41.3501 14.964 41.3861 14.3 41.4401ZM14.139 35.3171C15.3016 35.3662 16.4646 35.2312 17.585 34.9171C20.041 34.2561 21.909 32.7971 22.451 30.2501C22.8409 28.577 22.8502 26.8379 22.4783 25.1607C22.1063 23.4836 21.3626 21.9114 20.302 20.5601C19.3526 19.257 18.0118 18.2913 16.4751 17.8037C14.9384 17.316 13.286 17.3319 11.759 17.8491C6.90401 19.5621 4.07599 26.8361 6.47699 31.4491C8.09999 34.5761 10.98 35.2291 14.137 35.3171H14.139Z" fill="#252A62"/>
<path d="M18.553 7.83597C18.0306 7.8397 17.5127 7.73951 17.0294 7.54123C16.5461 7.34295 16.1071 7.05056 15.7378 6.68103C15.3686 6.31151 15.0765 5.87225 14.8786 5.3888C14.6807 4.90535 14.5809 4.38737 14.585 3.86499C14.6226 2.83721 15.0538 1.86317 15.7894 1.14435C16.5249 0.425536 17.5086 0.0169293 18.537 0.0029946C19.0599 -0.0104348 19.5803 0.0814624 20.067 0.273258C20.5537 0.465054 20.9968 0.752806 21.37 1.11939C21.7432 1.48597 22.0389 1.92389 22.2393 2.40708C22.4398 2.89027 22.5411 3.40887 22.537 3.93198C22.5475 4.45436 22.451 4.97339 22.2535 5.4571C22.056 5.9408 21.7616 6.37897 21.3884 6.74466C21.0152 7.11035 20.5711 7.39582 20.0835 7.5835C19.5959 7.77118 19.0751 7.85709 18.553 7.83597Z" fill="#252A62"/>
<path d="M8.80601 7.836C8.28321 7.85135 7.76279 7.75973 7.27668 7.56672C6.79057 7.3737 6.34901 7.08338 5.97913 6.7136C5.60925 6.34381 5.31884 5.90232 5.12571 5.41626C4.93257 4.9302 4.84078 4.40983 4.85599 3.88703C4.86538 2.85965 5.27754 1.87696 6.00385 1.15027C6.73016 0.423587 7.71262 0.0109225 8.74 0.00101069C9.26265 -0.0107931 9.7825 0.0808946 10.2696 0.270817C10.7566 0.460739 11.2013 0.745149 11.578 1.10764C11.9548 1.47013 12.256 1.90356 12.4645 2.38297C12.6731 2.86238 12.7847 3.37828 12.793 3.901C12.7978 4.4235 12.6976 4.94165 12.4983 5.42466C12.299 5.90767 12.0046 6.3457 11.6327 6.71274C11.2608 7.07979 10.819 7.36835 10.3334 7.56131C9.8478 7.75427 9.32839 7.84768 8.80601 7.836Z" fill="#252A62"/>
</g>
<defs>
<clipPath id="clip0_270_3">
<rect width="28.462" height="41.44" fill="white"/>
</clipPath>
</defs>
</svg>
