<svg width="15" height="17" viewBox="0 0 15 17" fill="none" xmlns="http://www.w3.org/2000/svg">
<path d="M9.78864 11.0225C11.5064 8.40412 11.2908 8.73093 11.3398 8.66244C11.9636 7.8108 12.2979 6.79112 12.2961 5.74591C12.2965 4.94902 12.1029 4.16334 11.7312 3.45299C11.3594 2.74264 10.82 2.12776 10.1569 1.65856C9.49386 1.18936 8.72598 0.879128 7.91596 0.753198C7.10594 0.627268 6.27674 0.689207 5.49607 0.93396C4.71539 1.17871 4.00536 1.59934 3.42395 2.1615C2.84254 2.72367 2.40622 3.41143 2.15062 4.16864C1.89502 4.92585 1.82739 5.73105 1.95323 6.5185C2.07908 7.30595 2.39484 8.05333 2.87474 8.69962L4.39841 11.0225C2.76999 11.2659 0 11.9906 0 13.5868C0 14.1687 0.39082 14.9978 2.25292 15.6436C3.81597 16.1338 5.4516 16.3701 7.09386 16.3429C10.4998 16.3429 14.1877 15.4094 14.1877 13.5862C14.1877 11.9906 11.4218 11.2665 9.78864 11.0225ZM3.66512 8.19407L3.649 8.17059C3.1898 7.55555 2.91394 6.82949 2.85172 6.07213C2.7895 5.31476 2.94331 4.55539 3.29628 3.87739C3.64924 3.19938 4.1877 2.62897 4.85254 2.22879C5.51737 1.8286 6.28287 1.61411 7.06497 1.60888C7.84708 1.60365 8.61555 1.80788 9.28599 2.19913C9.95644 2.59039 10.5029 3.15354 10.8655 3.82676C11.228 4.49998 11.3926 5.25722 11.3411 6.01535C11.2896 6.77347 11.0241 7.50315 10.5736 8.12427C10.528 8.18233 10.7657 7.8242 7.09453 13.4205L3.66512 8.19407ZM7.09386 15.4238C3.37368 15.4238 0.94549 14.3618 0.94549 13.5862C0.94549 13.0643 2.19316 12.2078 4.95778 11.8738L6.69498 14.5222C6.73721 14.588 6.79598 14.6423 6.86577 14.6799C6.93555 14.7175 7.01405 14.7373 7.09386 14.7373C7.17367 14.7373 7.25217 14.7175 7.32195 14.6799C7.39174 14.6423 7.45051 14.588 7.49274 14.5222L9.22994 11.8738C11.9946 12.2078 13.2422 13.065 13.2422 13.5862C13.2422 14.3552 10.8362 15.4238 7.09386 15.4238Z" fill="black"/>
<path d="M7.09395 3.44894C6.62631 3.44894 6.16918 3.58365 5.78036 3.83603C5.39154 4.08841 5.08849 4.44712 4.90953 4.86681C4.73058 5.2865 4.68376 5.74832 4.77499 6.19386C4.86622 6.6394 5.0914 7.04865 5.42207 7.36987C5.75274 7.69108 6.17403 7.90984 6.63268 7.99846C7.09133 8.08708 7.56672 8.0416 7.99876 7.86776C8.4308 7.69392 8.80007 7.39953 9.05987 7.02182C9.31968 6.64411 9.45835 6.20004 9.45835 5.74577C9.45764 5.13683 9.2083 4.55302 8.76504 4.12243C8.32179 3.69184 7.7208 3.44963 7.09395 3.44894ZM7.09395 7.12413C6.81331 7.12413 6.53898 7.04328 6.30564 6.89183C6.07231 6.74037 5.89045 6.52511 5.78305 6.27324C5.67566 6.02138 5.64755 5.74424 5.7023 5.47686C5.75705 5.20949 5.89219 4.96389 6.09063 4.77113C6.28907 4.57836 6.5419 4.44708 6.81714 4.3939C7.09238 4.34071 7.37767 4.36801 7.63694 4.47233C7.89621 4.57666 8.11781 4.75332 8.27372 4.97999C8.42964 5.20666 8.51286 5.47316 8.51286 5.74577C8.5125 6.11123 8.36289 6.46162 8.09687 6.72003C7.83085 6.97845 7.47015 7.12378 7.09395 7.12413Z" fill="black"/>
</svg>
