<svg width="83" height="19" viewBox="0 0 83 19" fill="none" xmlns="http://www.w3.org/2000/svg">
<g clip-path="url(#clip0_31_1222)">
<path d="M13.5579 17.4546C13.3365 17.6084 13.1043 17.7457 12.863 17.8655C12.3824 18.1113 11.878 18.3071 11.3577 18.4498C10.1313 18.7817 8.84383 18.8165 7.60134 18.5514C6.33319 18.3044 5.1276 17.8034 4.05655 17.0783C3.40708 16.6228 2.81823 16.0859 2.30431 15.4806C1.64802 14.7355 1.11091 13.8927 0.712175 12.9822C0.536173 12.5839 0.393957 12.1714 0.287043 11.7491C-0.273381 9.46087 -0.00508056 7.26324 1.018 5.15442C1.39024 4.37395 1.88363 3.65783 2.4797 3.03283C2.49474 3.02171 2.50706 3.00729 2.51573 2.99068C2.5244 2.97407 2.52918 2.95569 2.52973 2.93695C2.53027 2.9182 2.52656 2.89957 2.51888 2.88248C2.51119 2.86539 2.49973 2.85027 2.48536 2.83829C2.40242 2.75455 2.31024 2.68059 2.21061 2.61783C1.93676 2.42895 1.6418 2.27297 1.33176 2.15309C1.29172 2.13629 1.25358 2.11524 1.21801 2.0903C1.11229 2.01804 1.11279 1.92715 1.21602 1.85289C1.55111 1.60587 1.9193 1.40767 2.30967 1.26417C2.88144 1.04765 3.50134 0.9925 4.10211 1.1047C4.27349 1.13562 4.44055 1.18708 4.59971 1.25799C4.62368 1.27082 4.65065 1.27695 4.67778 1.27572C4.70492 1.27449 4.73123 1.26596 4.75396 1.25101C5.72707 0.689244 6.79402 0.3103 7.9025 0.132767C8.45819 0.0360052 9.02188 -0.00684874 9.58575 0.00479671C11.39 0.0774529 13.0555 0.583752 14.5551 1.60223C15.5902 2.30264 16.4742 3.20522 17.1543 4.25612C17.8344 5.30702 18.2967 6.4847 18.5136 7.71891C18.6157 8.22611 18.6593 8.74342 18.6438 9.26063C18.6258 9.56521 18.6047 9.88335 18.4675 10.1713C18.3664 10.3821 18.2299 10.5489 17.9889 10.6046C17.909 10.6251 17.8253 10.6256 17.7451 10.6059C17.6649 10.5863 17.5908 10.5472 17.5293 10.492C17.3445 10.32 17.1905 10.1175 17.0738 9.89331C16.7833 9.40337 16.4316 8.95278 16.0272 8.55251C15.5697 8.11816 15.0214 7.79182 14.4223 7.59732C13.7042 7.34223 12.9425 7.23436 12.1821 7.28008C11.7947 7.30602 11.4127 7.38599 11.0473 7.51769C10.4526 7.72574 9.89002 8.01686 9.37621 8.38248C8.51612 8.9848 7.87944 9.8567 7.566 10.8615C7.34862 11.5426 7.19685 12.231 7.21462 12.9488C7.23354 13.9184 7.55657 14.8573 8.13774 15.632C8.52006 16.156 8.99688 16.6034 9.54347 16.951C9.56816 16.9725 9.59873 16.9861 9.63119 16.9899C9.66365 16.9938 9.69652 16.9877 9.72551 16.9726C9.75649 16.9552 9.78183 16.9293 9.79847 16.8978C9.81511 16.8663 9.82235 16.8307 9.81931 16.7953C9.81872 16.0791 10.0142 15.4366 10.5301 14.9187C10.5851 14.8507 10.6577 14.7993 10.7399 14.77C10.8256 14.7457 10.8538 14.764 10.8434 14.8558C10.8218 15.0413 10.8103 15.2278 10.8091 15.4146C10.7948 15.8115 10.871 16.2064 11.032 16.5692C11.2858 17.0953 11.7214 17.3793 12.2817 17.484C12.7049 17.5586 13.1386 17.5484 13.5579 17.4541" fill="white"/>
<path d="M28.1104 13.9486C28.0667 13.9515 28.0232 13.9399 27.9867 13.9156C27.9503 13.8912 27.9228 13.8554 27.9087 13.8138L26.1629 10.2405H24.5913C24.5803 10.2389 24.5692 10.2399 24.5587 10.2434C24.5482 10.2469 24.5387 10.2528 24.5309 10.2606C24.523 10.2685 24.5171 10.278 24.5136 10.2885C24.5101 10.2991 24.5091 10.3102 24.5106 10.3212V13.8142C24.5131 13.8325 24.5113 13.8511 24.5055 13.8686C24.4996 13.8861 24.4898 13.902 24.4768 13.915C24.4638 13.9281 24.448 13.9379 24.4306 13.9438C24.4131 13.9497 24.3946 13.9515 24.3764 13.949H23.06C23.0418 13.9515 23.0232 13.9497 23.0058 13.9438C22.9884 13.9379 22.9726 13.9281 22.9596 13.915C22.9466 13.902 22.9368 13.8861 22.9309 13.8686C22.925 13.8511 22.9233 13.8325 22.9258 13.8142V4.91308C22.9233 4.89479 22.925 4.87618 22.9309 4.85869C22.9368 4.84119 22.9466 4.8253 22.9596 4.81225C22.9726 4.7992 22.9884 4.78935 23.0058 4.78346C23.0232 4.77758 23.0418 4.77582 23.06 4.77833H26.5927C26.9888 4.77404 27.3824 4.84255 27.754 4.98046C28.0933 5.1067 28.4056 5.29662 28.6742 5.54008C28.936 5.7815 29.1443 6.07563 29.2853 6.40328C29.4357 6.75457 29.5112 7.13359 29.5068 7.51595C29.5201 8.07429 29.3555 8.6223 29.0369 9.08009C28.723 9.52106 28.2825 9.85518 27.7743 10.0377L29.6948 13.7734C29.7078 13.7908 29.7153 13.8115 29.7165 13.8331C29.7177 13.8547 29.7124 13.8762 29.7015 13.8948C29.6911 13.9121 29.6763 13.9262 29.6586 13.9357C29.6408 13.9451 29.6209 13.9496 29.6008 13.9486H28.1104ZM26.5389 8.8107C26.9595 8.8107 27.2975 8.69372 27.5529 8.45978C27.681 8.33968 27.7815 8.19307 27.8476 8.03011C27.9137 7.86714 27.9437 7.69171 27.9356 7.51595C27.9356 7.1113 27.808 6.79211 27.5529 6.55836C27.2978 6.32461 26.9598 6.20777 26.5389 6.20784H24.5913C24.5803 6.20624 24.5692 6.20723 24.5587 6.21071C24.5482 6.21419 24.5387 6.22008 24.5309 6.2279C24.523 6.23572 24.5171 6.24527 24.5136 6.25578C24.5101 6.26629 24.509 6.27748 24.5106 6.28847V8.72957C24.509 8.74059 24.51 8.75182 24.5135 8.76237C24.517 8.77293 24.5229 8.78252 24.5307 8.79039C24.5386 8.79826 24.5481 8.8042 24.5586 8.80772C24.5691 8.81125 24.5803 8.81227 24.5913 8.8107H26.5389Z" fill="white"/>
<path d="M34.3958 13.9483C34.3776 13.9508 34.359 13.9491 34.3415 13.9432C34.3241 13.9374 34.3082 13.9275 34.2952 13.9145C34.2821 13.9014 34.2723 13.8855 34.2664 13.868C34.2605 13.8505 34.2588 13.8318 34.2613 13.8135V13.3416H34.248C34.0743 13.5836 33.8372 13.7726 33.5631 13.8876C33.2017 14.0379 32.8126 14.1092 32.4216 14.0969C32.1374 14.0986 31.8545 14.0577 31.5823 13.9755C31.3299 13.901 31.0948 13.7772 30.8903 13.6112C30.6896 13.4449 30.529 13.2353 30.4203 12.9979C30.2976 12.7201 30.2379 12.4183 30.2455 12.1144C30.2455 11.4042 30.4762 10.8826 30.9375 10.5497C31.3988 10.2167 32.0322 10.0504 32.8378 10.0507H34.1542C34.1652 10.0523 34.1763 10.0513 34.1869 10.0478C34.1974 10.0443 34.2069 10.0384 34.2148 10.0305C34.2226 10.0227 34.2285 10.0131 34.232 10.0025C34.2355 9.99195 34.2366 9.98073 34.235 9.96971V9.65955C34.235 9.28202 34.132 9.00774 33.926 8.83672C33.72 8.66569 33.3439 8.58031 32.7976 8.58057C32.4926 8.57123 32.1882 8.61455 31.8978 8.70864C31.6888 8.78091 31.4935 8.88817 31.3201 9.02588C31.2398 9.08867 31.1769 9.0795 31.1321 8.99887L30.6352 8.10866C30.624 8.09597 30.6157 8.08096 30.611 8.0647C30.6062 8.04843 30.6051 8.03132 30.6076 8.01456C30.6102 7.99781 30.6164 7.98183 30.6258 7.96776C30.6352 7.95369 30.6476 7.94186 30.6621 7.93314C30.949 7.73085 31.2664 7.57606 31.6021 7.47468C32.0429 7.34778 32.5003 7.28861 32.9587 7.29918C33.9438 7.29918 34.6401 7.47894 35.0474 7.83847C35.4548 8.19799 35.6585 8.77346 35.6586 9.56487V13.8129C35.6611 13.8312 35.6593 13.8499 35.6535 13.8674C35.6476 13.8849 35.6377 13.9009 35.6247 13.9139C35.6116 13.927 35.5958 13.9368 35.5783 13.9427C35.5608 13.9485 35.5422 13.9502 35.524 13.9477L34.3958 13.9483ZM32.7977 12.8693C33.2631 12.8693 33.6191 12.7796 33.8656 12.6002C34.1122 12.4208 34.2354 12.1421 34.2351 11.7641V11.2648C34.2366 11.2537 34.2356 11.2425 34.2321 11.232C34.2286 11.2214 34.2227 11.2118 34.2149 11.2039C34.207 11.1961 34.1975 11.1901 34.187 11.1866C34.1764 11.1831 34.1653 11.1821 34.1543 11.1836H33.0794C32.5963 11.1836 32.2427 11.2534 32.0185 11.3929C31.7943 11.5325 31.6824 11.7551 31.6827 12.0607C31.6827 12.6 32.0543 12.8695 32.7974 12.8693H32.7977Z" fill="white"/>
<path d="M37.0283 6.22088C37.01 6.22346 36.9915 6.22175 36.974 6.2159C36.9565 6.21004 36.9406 6.2002 36.9276 6.18714C36.9145 6.17408 36.9047 6.15817 36.8988 6.14064C36.8929 6.12311 36.8912 6.10445 36.8937 6.08613V4.91277C36.8912 4.89445 36.8929 4.87579 36.8988 4.85826C36.9047 4.84074 36.9145 4.82482 36.9276 4.81176C36.9406 4.7987 36.9565 4.78886 36.974 4.783C36.9915 4.77715 37.01 4.77545 37.0283 4.77802H38.2639C38.2821 4.77551 38.3006 4.77727 38.3181 4.78315C38.3355 4.78904 38.3513 4.79889 38.3643 4.81194C38.3773 4.82499 38.3871 4.84088 38.393 4.85838C38.3988 4.87587 38.4006 4.89449 38.3981 4.91277V6.08613C38.4006 6.10442 38.3988 6.12304 38.393 6.14053C38.3871 6.15802 38.3773 6.17391 38.3643 6.18696C38.3513 6.20001 38.3355 6.20986 38.3181 6.21575C38.3006 6.22163 38.2821 6.22339 38.2639 6.22088H37.0283ZM37.0283 13.9482C37.01 13.9508 36.9915 13.9491 36.974 13.9433C36.9565 13.9374 36.9406 13.9276 36.9276 13.9145C36.9145 13.9015 36.9047 13.8855 36.8988 13.868C36.8929 13.8505 36.8912 13.8318 36.8937 13.8135V7.58291C36.8912 7.5646 36.893 7.54595 36.8989 7.52844C36.9047 7.51092 36.9146 7.49502 36.9276 7.48197C36.9407 7.46893 36.9566 7.45909 36.974 7.45324C36.9915 7.44739 37.0101 7.44569 37.0283 7.44826H38.2639C38.2821 7.44576 38.3006 7.44751 38.318 7.45339C38.3354 7.45927 38.3513 7.46911 38.3643 7.48215C38.3773 7.49519 38.3871 7.51107 38.3929 7.52855C38.3988 7.54603 38.4006 7.56463 38.3981 7.58291V13.8135C38.4006 13.8318 38.3988 13.8504 38.393 13.8679C38.3871 13.8854 38.3773 13.9013 38.3643 13.9143C38.3513 13.9274 38.3355 13.9372 38.3181 13.9431C38.3006 13.949 38.2821 13.9508 38.2639 13.9482H37.0283Z" fill="white"/>
<path d="M40.34 16.3761C40.3218 16.3786 40.3032 16.3769 40.2857 16.371C40.2682 16.3651 40.2523 16.3552 40.2393 16.3421C40.2263 16.329 40.2165 16.313 40.2106 16.2955C40.2048 16.2779 40.2031 16.2592 40.2056 16.2409V15.1619C40.203 15.1436 40.2047 15.125 40.2105 15.1074C40.2163 15.0899 40.2261 15.0739 40.2392 15.0608C40.2522 15.0477 40.2681 15.0379 40.2855 15.0321C40.303 15.0262 40.3216 15.0245 40.3398 15.0272H40.5816C40.7983 15.0408 41.0127 14.9761 41.186 14.8448C41.3549 14.6836 41.4798 14.4816 41.5488 14.2582L41.7368 13.7051L39.3731 7.58267C39.3463 7.49283 39.382 7.44795 39.4804 7.44802H40.8104C40.8489 7.44743 40.8863 7.46069 40.9158 7.48539C40.9454 7.51008 40.9651 7.5446 40.9715 7.58267L42.4357 11.8308H42.4627L43.8594 7.58267C43.8658 7.5446 43.8856 7.51008 43.9151 7.48539C43.9447 7.46069 43.9821 7.44743 44.0205 7.44802H45.2963C45.3949 7.44802 45.4308 7.4929 45.404 7.58267L42.9324 14.3525C42.8138 14.6844 42.67 15.0068 42.5025 15.3167C42.3792 15.547 42.2206 15.7563 42.0325 15.9371C41.871 16.0893 41.6784 16.2043 41.4681 16.2743C41.2377 16.3454 40.9974 16.3797 40.7563 16.3758L40.34 16.3761Z" fill="white"/>
<path d="M50.233 13.9483C50.2148 13.9508 50.1962 13.949 50.1788 13.9431C50.1614 13.9372 50.1456 13.9274 50.1326 13.9143C50.1196 13.9013 50.1098 13.8854 50.104 13.8679C50.0981 13.8504 50.0964 13.8318 50.0989 13.8135V13.3416H50.0852C49.9115 13.5837 49.6744 13.7727 49.4003 13.8876C49.0389 14.0379 48.6498 14.1093 48.2588 14.0969C47.9745 14.0985 47.6916 14.0576 47.4194 13.9755C47.1672 13.9011 46.9322 13.7773 46.7279 13.6112C46.5271 13.445 46.3664 13.2354 46.2579 12.998C46.1349 12.7202 46.0752 12.4183 46.0831 12.1144C46.0831 11.4042 46.3136 10.8826 46.7746 10.5497C47.2357 10.2167 47.8692 10.0504 48.6754 10.0508H49.9914C50.0023 10.0523 50.0135 10.0513 50.024 10.0478C50.0345 10.0443 50.044 10.0383 50.0519 10.0305C50.0597 10.0226 50.0656 10.013 50.0691 10.0025C50.0726 9.99195 50.0736 9.98073 50.0721 9.96973V9.65957C50.0721 9.28203 49.9691 9.00776 49.7632 8.83673C49.5572 8.6657 49.1812 8.58032 48.6352 8.58059C48.33 8.57125 48.0255 8.61456 47.735 8.70866C47.5261 8.78092 47.3309 8.88818 47.1577 9.0259C47.077 9.08868 47.0143 9.07968 46.9697 8.99888L46.4728 8.10867C46.4616 8.09601 46.4533 8.08102 46.4485 8.06478C46.4437 8.04853 46.4425 8.03142 46.445 8.01467C46.4476 7.99792 46.4537 7.98193 46.4631 7.96784C46.4725 7.95376 46.4848 7.94191 46.4993 7.93316C46.7863 7.73086 47.1038 7.57608 47.4397 7.4747C47.8804 7.34773 48.3378 7.28856 48.7963 7.29919C49.7811 7.29919 50.4772 7.47895 50.8846 7.83848C51.292 8.19801 51.4957 8.77347 51.4957 9.56488V13.8129C51.4982 13.8312 51.4965 13.8498 51.4906 13.8673C51.4848 13.8848 51.475 13.9007 51.462 13.9138C51.449 13.9268 51.4331 13.9367 51.4157 13.9425C51.3983 13.9484 51.3798 13.9502 51.3615 13.9477L50.233 13.9483ZM48.6349 12.8693C49.1003 12.8693 49.4562 12.7796 49.7024 12.6002C49.9486 12.4208 50.0718 12.1421 50.0718 11.7641V11.2648C50.0733 11.2538 50.0723 11.2425 50.0688 11.232C50.0653 11.2214 50.0594 11.2118 50.0516 11.204C50.0438 11.1961 50.0342 11.1901 50.0237 11.1866C50.0132 11.1831 50.002 11.1821 49.9911 11.1837H48.917C48.4334 11.1837 48.0796 11.2534 47.8557 11.393C47.6317 11.5325 47.5198 11.7551 47.5199 12.0607C47.5199 12.6 47.8915 12.8695 48.6349 12.8693Z" fill="white"/>
<path d="M56.8279 13.9483C56.8096 13.9508 56.7911 13.9491 56.7736 13.9433C56.7561 13.9374 56.7403 13.9275 56.7272 13.9145C56.7142 13.9014 56.7044 13.8855 56.6985 13.868C56.6926 13.8505 56.6909 13.8318 56.6934 13.8135V10.0644C56.6934 9.64189 56.5904 9.30024 56.3844 9.03945C56.1784 8.77865 55.874 8.64826 55.4712 8.64826C55.0769 8.64826 54.7725 8.77865 54.558 9.03945C54.3435 9.30024 54.236 9.64189 54.2358 10.0644V13.8135C54.2383 13.8318 54.2365 13.8505 54.2307 13.868C54.2248 13.8856 54.2149 13.9015 54.2019 13.9145C54.1888 13.9276 54.173 13.9374 54.1555 13.9433C54.138 13.9491 54.1194 13.9508 54.1012 13.9483H52.8654C52.8472 13.9508 52.8287 13.949 52.8113 13.9431C52.7938 13.9372 52.778 13.9274 52.765 13.9143C52.7521 13.9013 52.7423 13.8854 52.7364 13.8679C52.7305 13.8504 52.7288 13.8318 52.7313 13.8135V7.58293C52.7287 7.56464 52.7304 7.54599 52.7362 7.52846C52.742 7.51093 52.7518 7.49501 52.7648 7.48194C52.7778 7.46887 52.7937 7.45903 52.8112 7.45319C52.8286 7.44735 52.8472 7.44567 52.8654 7.44828H54.1011C54.1193 7.44571 54.1379 7.44742 54.1554 7.45326C54.1728 7.45911 54.1887 7.46895 54.2017 7.48199C54.2148 7.49504 54.2246 7.51094 54.2305 7.52846C54.2364 7.54597 54.2382 7.56462 54.2357 7.58293V8.05485H54.2489C54.4158 7.8283 54.6347 7.64558 54.887 7.52223C55.2013 7.38268 55.5401 7.30728 55.8837 7.30044C56.2273 7.29359 56.5689 7.35544 56.8884 7.48237C57.1558 7.59981 57.3959 7.77202 57.5932 7.98798C57.7932 8.20872 57.9463 8.46803 58.0433 8.75011C58.1491 9.06033 58.2013 9.38641 58.1978 9.71428V13.8139C58.2003 13.8322 58.1985 13.8508 58.1927 13.8683C58.1868 13.8858 58.177 13.9017 58.164 13.9147C58.151 13.9278 58.1352 13.9377 58.1177 13.9435C58.1003 13.9494 58.0818 13.9512 58.0636 13.9487L56.8279 13.9483Z" fill="white"/>
<path d="M61.8104 14.0966C61.1478 14.0966 60.586 13.9888 60.1249 13.7731C59.7259 13.5978 59.3565 13.3611 59.0301 13.0716C59.0155 13.0606 59.0037 13.0464 58.9955 13.03C58.9874 13.0136 58.9832 12.9956 58.9832 12.9773C58.9832 12.959 58.9874 12.9409 58.9955 12.9245C59.0037 12.9081 59.0155 12.8939 59.0301 12.8829L59.7958 12.0738C59.8067 12.0592 59.8209 12.0473 59.8372 12.0391C59.8536 12.0309 59.8715 12.0267 59.8898 12.0267C59.908 12.0267 59.926 12.0309 59.9423 12.0391C59.9586 12.0473 59.9728 12.0592 59.9838 12.0738C60.2378 12.3028 60.5314 12.4833 60.85 12.6064C61.176 12.7421 61.525 12.8131 61.8778 12.8157C62.2808 12.8157 62.5807 12.7437 62.7776 12.5998C62.8689 12.5397 62.9437 12.4576 62.9952 12.361C63.0468 12.2644 63.0735 12.1565 63.0728 12.0469C63.0761 11.9562 63.0576 11.8661 63.0191 11.784C62.9806 11.7019 62.9231 11.6302 62.8514 11.575C62.7035 11.4582 62.4192 11.3772 61.9984 11.3322L61.3002 11.2648C60.6373 11.193 60.1404 10.9952 59.8096 10.6714C59.4787 10.3476 59.3131 9.907 59.3127 9.34953C59.3127 8.72045 59.5275 8.22152 59.9571 7.85276C60.3867 7.48399 61.009 7.29965 61.8242 7.29971C62.2946 7.29314 62.7627 7.3684 63.2076 7.52217C63.5865 7.65262 63.9405 7.84648 64.2549 8.09554C64.271 8.10449 64.2848 8.11707 64.2953 8.13228C64.3057 8.14749 64.3125 8.16492 64.3151 8.18321C64.3177 8.2015 64.3161 8.22014 64.3103 8.23768C64.3045 8.25522 64.2948 8.27118 64.2818 8.28431L63.6238 9.07974C63.6136 9.09436 63.6005 9.10672 63.5853 9.11606C63.5702 9.1254 63.5533 9.13153 63.5357 9.13406C63.518 9.13659 63.5001 9.13547 63.4829 9.13077C63.4658 9.12608 63.4497 9.1179 63.4358 9.10675C63.2003 8.94822 62.9451 8.82131 62.6768 8.72922C62.3774 8.62155 62.0617 8.56682 61.7438 8.56746C61.4216 8.56746 61.1776 8.63038 61.012 8.75623C60.9342 8.8106 60.8708 8.8833 60.8274 8.96797C60.784 9.05263 60.762 9.14669 60.7632 9.24189C60.7603 9.32893 60.7784 9.41539 60.8158 9.49396C60.8532 9.57253 60.9088 9.64093 60.9781 9.69338C61.1214 9.80634 61.4035 9.88507 61.8245 9.92959L62.5226 9.99696C63.203 10.0689 63.7067 10.2689 64.0337 10.5969C64.3607 10.925 64.5241 11.3588 64.5239 11.8984C64.5332 12.1969 64.4767 12.4938 64.3583 12.7677C64.2399 13.0417 64.0625 13.286 63.839 13.4831C63.382 13.892 62.7058 14.0965 61.8104 14.0966Z" fill="white"/>
<path d="M68.453 14.0967C67.7905 14.0967 67.2242 13.9393 66.754 13.6247C66.2855 13.3121 65.941 12.8443 65.7804 12.303C65.7091 12.0715 65.6551 11.8349 65.6189 11.5953C65.5478 10.9997 65.5478 10.3977 65.6189 9.80207C65.6552 9.56248 65.7091 9.32595 65.7804 9.09444C65.9409 8.55298 66.2854 8.08519 66.754 7.77258C67.2238 7.45784 67.7902 7.30053 68.453 7.30067C69.0494 7.28436 69.6369 7.44881 70.1389 7.77258C70.6074 8.08531 70.9519 8.55306 71.1124 9.09444C71.1836 9.32595 71.2374 9.56249 71.2734 9.80207C71.3453 10.3977 71.3453 10.9998 71.2734 11.5953C71.2375 11.8349 71.1836 12.0715 71.1124 12.303C70.9517 12.8443 70.6073 13.3119 70.1389 13.6247C69.6369 13.9485 69.0494 14.113 68.453 14.0967ZM68.453 12.7483C68.7234 12.7585 68.9898 12.6803 69.2121 12.5254C69.4213 12.3665 69.578 12.148 69.6618 11.8984C69.7152 11.7294 69.7512 11.5554 69.7694 11.3791C69.7873 11.2041 69.7963 10.9771 69.7964 10.6981C69.7987 10.4731 69.7896 10.2481 69.7694 10.024C69.7498 9.84574 69.7138 9.66968 69.6618 9.49809C69.578 9.24849 69.4213 9.03001 69.2121 8.87109C68.9898 8.71622 68.7234 8.63802 68.453 8.64824C68.1844 8.63429 67.9188 8.71013 67.6977 8.8639C67.4766 9.01767 67.3125 9.2407 67.231 9.49809C67.1788 9.66963 67.1428 9.84571 67.1234 10.024C67.1032 10.2481 67.0942 10.4731 67.0964 10.6981C67.0964 10.9771 67.1054 11.2041 67.1234 11.3791C67.1415 11.5554 67.1775 11.7295 67.231 11.8984C67.3125 12.1558 67.4766 12.3788 67.6977 12.5326C67.9188 12.6864 68.1844 12.7622 68.453 12.7483Z" fill="white"/>
<path d="M72.6569 13.9483C72.6387 13.9509 72.6201 13.9492 72.6026 13.9434C72.5851 13.9375 72.5692 13.9277 72.5562 13.9146C72.5432 13.9015 72.5334 13.8856 72.5276 13.868C72.5218 13.8505 72.5201 13.8318 72.5228 13.8135V8.70226C72.5243 8.69126 72.5233 8.68005 72.5198 8.66952C72.5163 8.65899 72.5104 8.64942 72.5025 8.6416C72.4947 8.63377 72.4851 8.62788 72.4746 8.62442C72.4641 8.62095 72.4529 8.61999 72.442 8.62162H72.0122C71.9939 8.62415 71.9754 8.62239 71.9579 8.61648C71.9405 8.61058 71.9246 8.60069 71.9116 8.58759C71.8986 8.57449 71.8888 8.55854 71.883 8.541C71.8771 8.52345 71.8754 8.50479 71.878 8.48648V7.58291C71.8755 7.56463 71.8773 7.54603 71.8831 7.52855C71.889 7.51107 71.8988 7.49519 71.9118 7.48215C71.9248 7.46911 71.9406 7.45927 71.958 7.45339C71.9755 7.44751 71.994 7.44576 72.0122 7.44826H72.442C72.453 7.44985 72.4642 7.44884 72.4747 7.44532C72.4852 7.44181 72.4948 7.43588 72.5026 7.428C72.5105 7.42013 72.5164 7.41053 72.5199 7.39996C72.5234 7.3894 72.5244 7.37816 72.5228 7.36714V6.94934C72.5228 6.18523 72.704 5.63222 73.0664 5.2903C73.4289 4.94839 73.9639 4.77762 74.6715 4.77802H75.2624C75.2806 4.77545 75.2992 4.77715 75.3167 4.783C75.3341 4.78886 75.35 4.7987 75.3631 4.81176C75.3761 4.82482 75.386 4.84074 75.3918 4.85826C75.3977 4.87579 75.3995 4.89445 75.397 4.91277V5.99175C75.3995 6.01007 75.3977 6.02873 75.3918 6.04625C75.386 6.06378 75.3761 6.0797 75.3631 6.09276C75.35 6.10582 75.3341 6.11566 75.3167 6.12152C75.2992 6.12737 75.2806 6.12907 75.2624 6.1265H74.8463C74.7065 6.12384 74.5669 6.13509 74.4294 6.16008C74.3354 6.17573 74.2486 6.22051 74.1812 6.28816C74.1201 6.35685 74.0783 6.44071 74.0603 6.53104C74.0352 6.65985 74.0239 6.791 74.0268 6.92222V7.36714C74.0252 7.37815 74.0262 7.38938 74.0297 7.39994C74.0332 7.41049 74.0391 7.42008 74.0469 7.42796C74.0548 7.43583 74.0643 7.44176 74.0748 7.44529C74.0853 7.44881 74.0965 7.44983 74.1075 7.44826H75.2624C75.2806 7.44569 75.2992 7.44739 75.3166 7.45324C75.3341 7.45909 75.35 7.46893 75.363 7.48197C75.3761 7.49502 75.3859 7.51092 75.3918 7.52844C75.3977 7.54595 75.3995 7.5646 75.397 7.58291V8.48608C75.3996 8.50443 75.3979 8.52313 75.392 8.54071C75.3861 8.55829 75.3763 8.57426 75.3633 8.58737C75.3502 8.60048 75.3343 8.61036 75.3168 8.61623C75.2993 8.62211 75.2807 8.62382 75.2624 8.62123H74.1075C74.0965 8.61962 74.0854 8.62058 74.0749 8.62406C74.0644 8.62753 74.0549 8.63341 74.047 8.64124C74.0392 8.64907 74.0333 8.65862 74.0298 8.66915C74.0263 8.67967 74.0252 8.69087 74.0268 8.70185V13.8131C74.0293 13.8314 74.0275 13.85 74.0217 13.8675C74.0158 13.885 74.006 13.9009 73.993 13.9139C73.98 13.927 73.9642 13.9368 73.9468 13.9427C73.9293 13.9486 73.9108 13.9504 73.8926 13.9478L72.6569 13.9483Z" fill="white"/>
<path d="M78.7087 14.0293C78.0549 14.0293 77.5915 13.872 77.3185 13.5573C77.0456 13.2427 76.9091 12.7662 76.9091 12.1278V8.70224C76.9106 8.69125 76.9096 8.68005 76.9061 8.66953C76.9026 8.65901 76.8967 8.64946 76.8888 8.64163C76.881 8.6338 76.8715 8.62791 76.861 8.62444C76.8505 8.62096 76.8393 8.62 76.8284 8.62161H76.3985C76.3802 8.62412 76.3617 8.62234 76.3442 8.61643C76.3268 8.61051 76.3109 8.60062 76.2979 8.58753C76.285 8.57443 76.2752 8.55849 76.2693 8.54095C76.2635 8.52342 76.2618 8.50477 76.2644 8.48646V7.5829C76.2618 7.5646 76.2634 7.54596 76.2693 7.52843C76.2751 7.5109 76.2849 7.49497 76.2979 7.4819C76.3109 7.46884 76.3268 7.459 76.3442 7.45316C76.3617 7.44731 76.3803 7.44563 76.3985 7.44825H76.8284C76.8393 7.44981 76.8505 7.4488 76.861 7.44527C76.8715 7.44175 76.8811 7.43581 76.8889 7.42794C76.8968 7.42007 76.9026 7.41048 76.9061 7.39992C76.9096 7.38936 76.9106 7.37813 76.9091 7.36712V5.58719C76.9065 5.56888 76.9082 5.55022 76.914 5.53267C76.9199 5.51513 76.9297 5.49918 76.9427 5.48608C76.9557 5.47299 76.9715 5.4631 76.989 5.45719C77.0064 5.45128 77.025 5.44952 77.0433 5.45205H78.279C78.2972 5.44954 78.3158 5.45131 78.3332 5.45723C78.3507 5.46314 78.3665 5.47303 78.3795 5.48613C78.3925 5.49922 78.4023 5.51516 78.4081 5.5327C78.4139 5.55023 78.4156 5.56889 78.4131 5.58719V7.36712C78.4115 7.37814 78.4125 7.38938 78.416 7.39995C78.4195 7.41051 78.4254 7.42012 78.4332 7.42799C78.4411 7.43586 78.4506 7.44179 78.4612 7.44531C78.4717 7.44882 78.4829 7.44983 78.4939 7.44825H79.3535C79.3717 7.44574 79.3902 7.44749 79.4076 7.45337C79.425 7.45925 79.4408 7.4691 79.4538 7.48214C79.4668 7.49517 79.4766 7.51106 79.4825 7.52854C79.4884 7.54602 79.4901 7.56462 79.4877 7.5829V8.48607C79.4902 8.50438 79.4885 8.52304 79.4827 8.54059C79.4769 8.55813 79.4671 8.57408 79.4541 8.58717C79.4411 8.60027 79.4252 8.61016 79.4077 8.61607C79.3903 8.62197 79.3717 8.62374 79.3535 8.62121H78.4939C78.4829 8.61958 78.4717 8.62054 78.4612 8.62401C78.4507 8.62747 78.4412 8.63336 78.4333 8.64118C78.4255 8.64901 78.4196 8.65858 78.416 8.66911C78.4125 8.67964 78.4115 8.69084 78.4131 8.70184V12.074C78.4131 12.3078 78.4624 12.4672 78.561 12.5524C78.6931 12.6483 78.855 12.6937 79.0176 12.6805H79.3539C79.3721 12.678 79.3907 12.6797 79.4081 12.6856C79.4256 12.6915 79.4414 12.7014 79.4545 12.7145C79.4675 12.7276 79.4773 12.7436 79.4831 12.7611C79.4889 12.7787 79.4906 12.7973 79.4881 12.8156V13.8945C79.4906 13.9128 79.4888 13.9314 79.4829 13.9489C79.4771 13.9664 79.4673 13.9823 79.4543 13.9953C79.4413 14.0084 79.4254 14.0182 79.408 14.0241C79.3906 14.03 79.3721 14.0318 79.3539 14.0293H78.7087Z" fill="white"/>
<path d="M81.4246 6.73473C81.2929 6.73624 81.1622 6.71106 81.0403 6.66068C80.9249 6.61249 80.8201 6.5419 80.7319 6.45297C80.6438 6.36403 80.5739 6.2585 80.5264 6.14242C80.4764 6.01905 80.4514 5.88692 80.4527 5.75373C80.4517 5.62228 80.4768 5.49194 80.5264 5.37031C80.574 5.25425 80.6438 5.14875 80.732 5.05982C80.8202 4.97089 80.9249 4.90029 81.0403 4.85205C81.1622 4.80192 81.2929 4.77674 81.4246 4.778C81.5573 4.77685 81.6888 4.80202 81.8118 4.85205C81.9273 4.89925 82.0321 4.96974 82.1195 5.05916C82.2067 5.14879 82.2759 5.25452 82.3231 5.37051C82.3729 5.49213 82.3979 5.62247 82.3969 5.75392C82.3983 5.88712 82.3732 6.01926 82.3231 6.14262C82.276 6.25874 82.2069 6.36453 82.1195 6.45408C82.0322 6.54358 81.9274 6.61404 81.8118 6.66108C81.6889 6.71121 81.5573 6.73625 81.4246 6.73473ZM81.4246 6.5663C81.5336 6.56754 81.6416 6.54663 81.7423 6.50481C81.837 6.4656 81.9227 6.40744 81.9943 6.33388C82.0665 6.25957 82.1236 6.1719 82.1624 6.07574C82.2436 5.86893 82.2436 5.63892 82.1624 5.43211C82.1242 5.33683 82.0674 5.2502 81.9953 5.17734C81.9232 5.10449 81.8372 5.04688 81.7426 5.00793C81.5383 4.92647 81.3108 4.92647 81.1065 5.00793C81.0118 5.04684 80.9259 5.10444 80.8538 5.1773C80.7816 5.25016 80.7248 5.3368 80.6866 5.43211C80.6054 5.6389 80.6054 5.86895 80.6866 6.07574C80.7257 6.1718 80.7827 6.25943 80.8547 6.33388C80.9263 6.4073 81.012 6.46544 81.1065 6.50481C81.2073 6.5467 81.3155 6.56762 81.4246 6.5663ZM81.0838 6.29022C81.0789 6.29097 81.074 6.29056 81.0693 6.28902C81.0647 6.28749 81.0604 6.28487 81.0569 6.28139C81.0535 6.27791 81.0509 6.27365 81.0493 6.26897C81.0478 6.26429 81.0474 6.25931 81.0482 6.25444V5.24284C81.0475 5.23798 81.0479 5.23303 81.0494 5.22837C81.051 5.22371 81.0536 5.21948 81.057 5.21601C81.0605 5.21255 81.0647 5.20994 81.0694 5.2084C81.074 5.20687 81.079 5.20644 81.0838 5.20716H81.4908C81.5895 5.20077 81.6871 5.23079 81.7653 5.29158C81.7981 5.32138 81.8238 5.35817 81.8406 5.39925C81.8573 5.44033 81.8647 5.48466 81.8622 5.52898C81.8646 5.59652 81.845 5.66301 81.8063 5.71834C81.7665 5.77115 81.7114 5.81034 81.6486 5.83057L81.8669 6.25464C81.8774 6.27876 81.8703 6.29043 81.8471 6.29043H81.7047C81.6942 6.29007 81.6842 6.28643 81.6759 6.28C81.6677 6.27358 81.6616 6.2647 81.6587 6.25464L81.4553 5.85598H81.262C81.2593 5.85564 81.2565 5.85592 81.254 5.8568C81.2514 5.85769 81.2491 5.85914 81.2472 5.86107C81.2453 5.86299 81.2438 5.86533 81.2429 5.8679C81.242 5.87048 81.2418 5.87322 81.2421 5.87591V6.25385C81.2428 6.25871 81.2424 6.26367 81.2408 6.26833C81.2393 6.27299 81.2367 6.27722 81.2332 6.2807C81.2298 6.28417 81.2255 6.28679 81.2209 6.28834C81.2163 6.28989 81.2113 6.29033 81.2065 6.28963L81.0838 6.29022ZM81.4908 5.68226C81.6092 5.68226 81.6688 5.63114 81.6688 5.52888C81.6688 5.43031 81.6093 5.38088 81.4908 5.38088H81.2618C81.2591 5.38056 81.2564 5.38085 81.2538 5.38174C81.2512 5.38263 81.2489 5.38409 81.247 5.38601C81.2451 5.38792 81.2437 5.39025 81.2428 5.39282C81.2419 5.39538 81.2416 5.39811 81.2419 5.40081V5.66153C81.2416 5.66423 81.2418 5.66697 81.2427 5.66955C81.2436 5.67212 81.2451 5.67446 81.247 5.67638C81.2489 5.67831 81.2512 5.67977 81.2538 5.68065C81.2563 5.68153 81.2591 5.68181 81.2618 5.68147L81.4908 5.68226Z" fill="white"/>
</g>
<defs>
<clipPath id="clip0_31_1222">
<rect width="82.3964" height="18.7265" fill="white"/>
</clipPath>
</defs>
</svg>
