<svg width="20" height="12" viewBox="0 0 20 12" fill="none" xmlns="http://www.w3.org/2000/svg">
<path d="M5.41664 9.99999H3.74998C3.63947 9.99999 3.53349 9.95609 3.45535 9.87795C3.37721 9.79981 3.33331 9.69383 3.33331 9.58333C3.33331 9.47282 3.37721 9.36684 3.45535 9.2887C3.53349 9.21056 3.63947 9.16666 3.74998 9.16666H5.41664C5.52715 9.16666 5.63313 9.21056 5.71127 9.2887C5.78941 9.36684 5.83331 9.47282 5.83331 9.58333C5.83331 9.69383 5.78941 9.79981 5.71127 9.87795C5.63313 9.95609 5.52715 9.99999 5.41664 9.99999ZM18.9583 9.99999H17.9166C17.8061 9.99999 17.7001 9.95609 17.622 9.87795C17.5439 9.79981 17.5 9.69383 17.5 9.58333C17.5 9.47282 17.5439 9.36684 17.622 9.2887C17.7001 9.21056 17.8061 9.16666 17.9166 9.16666H18.6125L19.1741 6.17333C19.1666 4.64166 17.8583 3.33333 16.25 3.33333H13.5141L12.1883 9.16666H14.5833C14.6938 9.16666 14.7998 9.21056 14.8779 9.2887C14.9561 9.36684 15 9.47282 15 9.58333C15 9.69383 14.9561 9.79981 14.8779 9.87795C14.7998 9.95609 14.6938 9.99999 14.5833 9.99999H11.6666C11.6041 10 11.5424 9.98598 11.486 9.95891C11.4297 9.93184 11.3801 9.89244 11.3411 9.84362C11.302 9.79479 11.2744 9.73781 11.2604 9.67688C11.2464 9.61596 11.2462 9.55265 11.26 9.49166L12.775 2.825C12.7958 2.73271 12.8474 2.65024 12.9213 2.59117C12.9952 2.53211 13.087 2.49995 13.1816 2.5H16.25C18.3175 2.5 20 4.1825 20 6.25L19.3675 9.65999C19.3497 9.75555 19.2991 9.84187 19.2244 9.90399C19.1496 9.9661 19.0555 10.0001 18.9583 9.99999Z" fill="#484C52"/>
<path d="M16.25 11.6666C15.1017 11.6666 14.1667 10.7325 14.1667 9.58332C14.1667 8.43415 15.1017 7.49998 16.25 7.49998C17.3983 7.49998 18.3333 8.43415 18.3333 9.58332C18.3333 10.7325 17.3983 11.6666 16.25 11.6666ZM16.25 8.33332C15.5608 8.33332 15 8.89415 15 9.58332C15 10.2725 15.5608 10.8333 16.25 10.8333C16.9392 10.8333 17.5 10.2725 17.5 9.58332C17.5 8.89415 16.9392 8.33332 16.25 8.33332ZM7.08333 11.6666C5.93499 11.6666 5 10.7325 5 9.58332C5 8.43415 5.93499 7.49998 7.08333 7.49998C8.23166 7.49998 9.16666 8.43415 9.16666 9.58332C9.16666 10.7325 8.23166 11.6666 7.08333 11.6666ZM7.08333 8.33332C6.39416 8.33332 5.83333 8.89415 5.83333 9.58332C5.83333 10.2725 6.39416 10.8333 7.08333 10.8333C7.77249 10.8333 8.33333 10.2725 8.33333 9.58332C8.33333 8.89415 7.77249 8.33332 7.08333 8.33332ZM5.41666 2.49999H2.08333C1.97282 2.49999 1.86684 2.45609 1.7887 2.37795C1.71056 2.29981 1.66667 2.19383 1.66667 2.08332C1.66667 1.97282 1.71056 1.86683 1.7887 1.78869C1.86684 1.71055 1.97282 1.66666 2.08333 1.66666H5.41666C5.52717 1.66666 5.63315 1.71055 5.71129 1.78869C5.78943 1.86683 5.83333 1.97282 5.83333 2.08332C5.83333 2.19383 5.78943 2.29981 5.71129 2.37795C5.63315 2.45609 5.52717 2.49999 5.41666 2.49999ZM5.41666 4.99999H1.25C1.13949 4.99999 1.03351 4.95609 0.955371 4.87795C0.877231 4.79981 0.833333 4.69383 0.833333 4.58332C0.833333 4.47281 0.877231 4.36683 0.955371 4.28869C1.03351 4.21055 1.13949 4.16665 1.25 4.16665H5.41666C5.52717 4.16665 5.63315 4.21055 5.71129 4.28869C5.78943 4.36683 5.83333 4.47281 5.83333 4.58332C5.83333 4.69383 5.78943 4.79981 5.71129 4.87795C5.63315 4.95609 5.52717 4.99999 5.41666 4.99999ZM5.41666 7.49998H0.416666C0.30616 7.49998 0.200179 7.45609 0.122039 7.37795C0.0438987 7.29981 0 7.19383 0 7.08332C0 6.97281 0.0438987 6.86683 0.122039 6.78869C0.200179 6.71055 0.30616 6.66665 0.416666 6.66665H5.41666C5.52717 6.66665 5.63315 6.71055 5.71129 6.78869C5.78943 6.86683 5.83333 6.97281 5.83333 7.08332C5.83333 7.19383 5.78943 7.29981 5.71129 7.37795C5.63315 7.45609 5.52717 7.49998 5.41666 7.49998Z" fill="#484C52"/>
<path d="M11.6666 9.99999H8.74997C8.63947 9.99999 8.53349 9.95609 8.45535 9.87795C8.37721 9.79981 8.33331 9.69383 8.33331 9.58332C8.33331 9.47282 8.37721 9.36684 8.45535 9.2887C8.53349 9.21056 8.63947 9.16666 8.74997 9.16666H11.3341L13.2275 0.833333H3.74998C3.63947 0.833333 3.53349 0.789434 3.45535 0.711294C3.37721 0.633154 3.33331 0.527173 3.33331 0.416666C3.33331 0.30616 3.37721 0.200179 3.45535 0.122039C3.53349 0.0438988 3.63947 5.21245e-08 3.74998 5.21245e-08H13.75C13.8125 -3.1219e-05 13.8742 0.0140083 13.9306 0.0410783C13.9869 0.0681484 14.0365 0.107555 14.0755 0.156377C14.1146 0.205199 14.1422 0.262185 14.1562 0.323111C14.1702 0.384038 14.1704 0.447342 14.1566 0.508333L12.0733 9.67499C12.0525 9.76729 12.0009 9.84975 11.927 9.90882C11.8531 9.96788 11.7613 10 11.6666 9.99999Z" fill="#484C52"/>
</svg>
