<svg width="16" height="13" viewBox="0 0 16 13" fill="none" xmlns="http://www.w3.org/2000/svg">
<path d="M15.2441 3.65243L15.4274 2.60501C15.4686 2.36989 15.3134 2.14522 15.0815 2.10402L3.26459 0.00632806C3.03419 -0.0346226 2.81164 0.127935 2.77156 0.356338L2.58772 1.40575L15.2441 3.65243ZM3.51751 8.45884H1.59009C1.51678 8.45884 1.45703 8.51822 1.45703 8.59128V9.35192C1.45703 9.42498 1.51678 9.48435 1.59009 9.48435H3.51751C3.59082 9.48435 3.65057 9.42498 3.65057 9.35192V8.59128C3.65057 8.51822 3.59082 8.45884 3.51751 8.45884Z" fill="#7A3ABF"/>
<path d="M12.4522 5.14014H0.399176C0.29359 5.14 0.192264 5.18176 0.117429 5.25625C0.0425943 5.33073 0.000362527 5.43186 0 5.53745L0 12.0496C0.000395411 12.1552 0.0426417 12.2563 0.117473 12.3307C0.192304 12.4052 0.293612 12.4469 0.399176 12.4468H12.4522C12.5578 12.4469 12.6591 12.4052 12.7339 12.3307C12.8088 12.2563 12.851 12.1552 12.8514 12.0496V5.53745C12.8511 5.43186 12.8088 5.33073 12.734 5.25625C12.6591 5.18176 12.5578 5.14 12.4522 5.14014ZM2.8302 11.3879H1.30009C1.15309 11.3879 1.03397 11.2693 1.03397 11.123C1.03397 10.9768 1.15309 10.8582 1.30009 10.8582H2.8302C2.9772 10.8582 3.09632 10.9768 3.09632 11.123C3.09625 11.1579 3.08932 11.1924 3.0759 11.2246C3.06249 11.2568 3.04287 11.286 3.01815 11.3106C2.99344 11.3352 2.96412 11.3547 2.93187 11.368C2.89962 11.3812 2.86507 11.388 2.8302 11.3879ZM1.59023 10.014C1.22342 10.014 0.924937 9.71703 0.924937 9.35196V8.59132C0.924937 8.22625 1.22342 7.92926 1.59023 7.92926H3.51765C3.88446 7.92926 4.18294 8.22625 4.18294 8.59132V9.35196C4.18294 9.71703 3.88446 10.014 3.51765 10.014H1.59023ZM5.7372 11.3879H4.20709C4.06009 11.3879 3.94097 11.2693 3.94097 11.123C3.94097 10.9768 4.06009 10.8582 4.20709 10.8582H5.7372C5.8842 10.8582 6.00332 10.9768 6.00332 11.123C6.00325 11.1579 5.99631 11.1924 5.9829 11.2246C5.96949 11.2568 5.94987 11.286 5.92515 11.3106C5.90044 11.3352 5.87112 11.3547 5.83887 11.368C5.80662 11.3812 5.77207 11.388 5.7372 11.3879ZM8.6442 11.3879H7.11409C6.96709 11.3879 6.84797 11.2693 6.84797 11.123C6.84797 10.9768 6.96709 10.8582 7.11409 10.8582H8.6442C8.7912 10.8582 8.91032 10.9768 8.91032 11.123C8.91025 11.1579 8.90331 11.1924 8.8899 11.2246C8.87649 11.2568 8.85686 11.286 8.83215 11.3106C8.80744 11.3352 8.77812 11.3547 8.74587 11.368C8.71362 11.3812 8.67907 11.388 8.6442 11.3879ZM11.5513 11.3879H10.0211C9.87409 11.3879 9.75497 11.2693 9.75497 11.123C9.75497 10.9768 9.87409 10.8582 10.0211 10.8582H11.5512C11.6982 10.8582 11.8173 10.9768 11.8173 11.123C11.8173 11.1579 11.8103 11.1924 11.7969 11.2246C11.7835 11.2568 11.7639 11.286 11.7392 11.3106C11.7145 11.3352 11.6852 11.3547 11.653 11.3679C11.6207 11.3812 11.5862 11.388 11.5513 11.3879Z" fill="#7A3ABF"/>
<path d="M2.49624 1.92773L2.02637 4.61069H12.4519C12.9654 4.61069 13.3833 5.02654 13.3833 5.53762V9.22193C13.7066 9.27931 14.233 9.42295 14.316 8.95009L15.1525 4.17442L3.26709 2.06465L2.49624 1.92773Z" fill="#7A3ABF"/>
</svg>
