<svg width="16" height="17" viewBox="0 0 16 17" fill="none" xmlns="http://www.w3.org/2000/svg">
<path d="M9.37267 11.243H10C14.4287 11.243 16 8.90835 16 6.90968C16 5.75702 15.158 4.80368 14.058 4.61568C14.3267 4.03302 14.5247 3.47302 14.6273 2.97102C14.7473 2.38702 14.598 1.78568 14.2187 1.32035C13.8327 0.847017 13.2607 0.575684 12.6507 0.575684H3.34867C2.73867 0.575684 2.16733 0.847017 1.78067 1.32035C1.40133 1.78502 1.252 2.38702 1.372 2.97102C1.47533 3.47235 1.672 4.03302 1.94067 4.61568C0.841333 4.80368 0 5.75702 0 6.90902C0 8.90768 1.57133 11.2424 6 11.2424H6.622C6.64133 11.383 6.66667 11.5224 6.66667 11.667V13.909C6.66667 15.1264 5.64267 15.237 5.33333 15.2424H3.33333V16.5757H12.6667V15.2424H10.6667C10.352 15.237 9.328 15.1264 9.328 13.909V11.667C9.328 11.5224 9.35267 11.3837 9.37267 11.243ZM13.3553 5.90968H13.6667C14.218 5.90968 14.6667 6.35835 14.6667 6.90968C14.6667 8.36035 13.3387 9.90968 9.898 9.90968C10.0207 9.74702 10.1607 9.60102 10.318 9.47568C11.4633 8.56035 12.546 7.24168 13.3553 5.90968ZM1.33333 6.90968C1.33333 6.35835 1.782 5.90968 2.33333 5.90968H2.64267C3.45067 7.24102 4.53133 8.55968 5.67667 9.47568C5.83333 9.60102 5.974 9.74768 6.09667 9.90968C2.656 9.90968 1.33333 8.36035 1.33333 6.90968ZM8.34933 3.24302L8.784 4.57968H10.19L10.39 5.19168L9.25267 6.01835L9.68733 7.35568L9.16667 7.73368L8.03 6.90968L6.89 7.73435L6.36933 7.35635L6.804 6.01902L5.66667 5.19235L5.86667 4.58035H7.27133L7.706 3.24702L8.34933 3.24302Z" fill="#7A3ABF"/>
</svg>
