<svg width="18" height="17" viewBox="0 0 18 17" fill="none" xmlns="http://www.w3.org/2000/svg">
<g clip-path="url(#clip0_463_9405)">
<path d="M6 8.42334C8.206 8.42334 10 6.62934 10 4.42334C10 2.21734 8.206 0.42334 6 0.42334C3.794 0.42334 2 2.21734 2 4.42334C2 6.62934 3.794 8.42334 6 8.42334ZM10.724 16.4233H8.66667V14.366L13.5167 9.51601C14.0847 8.94801 15.006 8.94801 15.574 9.51601C16.142 10.084 16.142 11.0053 15.574 11.5733L10.724 16.4233ZM7.33333 16.4233H0V13.09C0 11.252 1.49533 9.75667 3.33333 9.75667H8.66667C9.43 9.75667 10.126 10.0253 10.6887 10.4587L7.33333 13.814V16.4233Z" fill="#7A3ABF"/>
</g>
<defs>
<clipPath id="clip0_463_9405">
<rect width="17.0356" height="16" fill="white" transform="translate(0.517822 0.42334)"/>
</clipPath>
</defs>
</svg>
