<svg width="16" height="16" viewBox="0 0 16 16" fill="none" xmlns="http://www.w3.org/2000/svg">
<g clip-path="url(#clip0_463_9375)">
<path d="M1.33333 10H7.33333V16H4.66667C3.78261 16 2.93477 15.6488 2.30964 15.0237C1.68452 14.3986 1.33333 13.5507 1.33333 12.6667V10ZM16 7.33333C16 7.68696 15.8595 8.02609 15.6095 8.27614C15.3594 8.52619 15.0203 8.66667 14.6667 8.66667H8.66667V5.97133C8.44267 5.98867 8.21933 6 8 6C7.78067 6 7.55733 5.98867 7.33333 5.97133V8.66667H1.33333C0.979711 8.66667 0.640573 8.52619 0.390524 8.27614C0.140476 8.02609 0 7.68696 0 7.33333C0 6.62609 0.280952 5.94781 0.781049 5.44772C1.28115 4.94762 1.95942 4.66667 2.66667 4.66667H3.82533C3.4484 4.3344 3.1492 3.92325 2.94896 3.4624C2.74872 3.00154 2.65234 2.50227 2.66667 2C2.66667 1.82319 2.7369 1.65362 2.86193 1.5286C2.98695 1.40357 3.15652 1.33333 3.33333 1.33333C3.51014 1.33333 3.67971 1.40357 3.80474 1.5286C3.92976 1.65362 4 1.82319 4 2C4 3.748 5.58067 4.35333 6.78267 4.56067C6.33901 3.77404 6.07194 2.90025 6 2C6 1.46957 6.21071 0.960859 6.58579 0.585786C6.96086 0.210714 7.46957 0 8 0C8.53043 0 9.03914 0.210714 9.41421 0.585786C9.78929 0.960859 10 1.46957 10 2C9.92806 2.90025 9.66099 3.77404 9.21733 4.56067C10.4193 4.35333 12 3.748 12 2C12 1.82319 12.0702 1.65362 12.1953 1.5286C12.3203 1.40357 12.4899 1.33333 12.6667 1.33333C12.8435 1.33333 13.013 1.40357 13.1381 1.5286C13.2631 1.65362 13.3333 1.82319 13.3333 2C13.3477 2.50227 13.2513 3.00154 13.051 3.4624C12.8508 3.92325 12.5516 4.3344 12.1747 4.66667H13.3333C14.0406 4.66667 14.7189 4.94762 15.219 5.44772C15.719 5.94781 16 6.62609 16 7.33333ZM7.33333 2C7.41381 2.70855 7.64085 3.39261 8 4.00867C8.35915 3.39261 8.58619 2.70855 8.66667 2C8.66667 1.82319 8.59643 1.65362 8.47141 1.5286C8.34638 1.40357 8.17681 1.33333 8 1.33333C7.82319 1.33333 7.65362 1.40357 7.5286 1.5286C7.40357 1.65362 7.33333 1.82319 7.33333 2ZM8.66667 16H11.3333C11.7711 16 12.2045 15.9138 12.6089 15.7463C13.0134 15.5788 13.3808 15.3332 13.6904 15.0237C13.9999 14.7142 14.2454 14.3467 14.4129 13.9423C14.5804 13.5379 14.6667 13.1044 14.6667 12.6667V10H8.66667V16Z" fill="#7A3ABF"/>
</g>
<defs>
<clipPath id="clip0_463_9375">
<rect width="16" height="16" fill="white"/>
</clipPath>
</defs>
</svg>
