<svg width="16" height="16" viewBox="0 0 16 16" fill="none" xmlns="http://www.w3.org/2000/svg">
<g clip-path="url(#clip0_463_9371)">
<path d="M9.33336 4.66672C9.33336 4.93043 9.25516 5.18822 9.10865 5.40748C8.96214 5.62675 8.75391 5.79764 8.51027 5.89856C8.26664 5.99948 7.99855 6.02588 7.73991 5.97444C7.48126 5.92299 7.24369 5.796 7.05722 5.60953C6.87075 5.42306 6.74376 5.18548 6.69231 4.92684C6.64087 4.6682 6.66727 4.40011 6.76819 4.15648C6.8691 3.91284 7.04 3.7046 7.25927 3.55809C7.47853 3.41159 7.73632 3.33339 8.00003 3.33339C8.35365 3.33339 8.69279 3.47386 8.94283 3.72391C9.19288 3.97396 9.33336 4.3131 9.33336 4.66672ZM11.3 7.97139L8.00003 11.2001L4.70536 7.97605C4.05148 7.32422 3.60565 6.49307 3.42428 5.58778C3.24291 4.68249 3.33416 3.74374 3.68647 2.89032C4.03878 2.03691 4.63632 1.30717 5.40349 0.793459C6.17066 0.279746 7.07297 0.00514275 7.99625 0.00439606C8.91953 0.00364937 9.82228 0.276793 10.5903 0.789264C11.3583 1.30174 11.957 2.0305 12.3107 2.88335C12.6644 3.7362 12.7571 4.6748 12.5772 5.58038C12.3973 6.48596 11.9529 7.3185 11.3 7.97139ZM10.6667 4.66672C10.6667 4.1393 10.5103 3.62373 10.2173 3.1852C9.92426 2.74667 9.50778 2.40488 9.02052 2.20304C8.53325 2.00121 7.99707 1.9484 7.47979 2.05129C6.9625 2.15419 6.48735 2.40816 6.11441 2.7811C5.74147 3.15404 5.48749 3.6292 5.3846 4.14648C5.2817 4.66376 5.33451 5.19994 5.53635 5.68721C5.73818 6.17448 6.07998 6.59096 6.51851 6.88397C6.95704 7.17699 7.47261 7.33339 8.00003 7.33339C8.70727 7.33339 9.38555 7.05244 9.88564 6.55234C10.3857 6.05224 10.6667 5.37397 10.6667 4.66672ZM14.578 7.07539L13.6214 6.75539C13.3236 7.56652 12.8532 8.30328 12.2427 8.91472L8.00003 13.0667L3.77336 8.93339C2.97102 8.13403 2.41164 7.12366 2.16003 6.01939C1.88519 5.99409 1.60809 6.02657 1.34655 6.11474C1.08501 6.20292 0.844813 6.34483 0.641388 6.53137C0.437963 6.7179 0.275813 6.94493 0.165358 7.19787C0.0549028 7.45081 -0.00141383 7.72406 2.69631e-05 8.00005V14.5014L5.32203 16.0221L10.6687 14.6887L16.002 15.9874V8.98872C16.0018 8.55905 15.8631 8.14089 15.6066 7.79616C15.3502 7.45143 14.9895 7.19913 14.578 7.07539Z" fill="#7A3ABF"/>
</g>
<defs>
<clipPath id="clip0_463_9371">
<rect width="16" height="16" fill="white"/>
</clipPath>
</defs>
</svg>
