<svg width="16" height="16" viewBox="0 0 16 16" fill="none" xmlns="http://www.w3.org/2000/svg">
<g clip-path="url(#clip0_463_9394)">
<path d="M8.01068 3.82082L2.01668 1.81616L6.95135 0.171488C7.63535 -0.0565117 8.37535 -0.0565117 9.05935 0.171488L14.0053 1.82016L8.01068 3.82082ZM5.88935 7.56949L7.33935 5.15349L2.04202 3.38749C1.63068 3.25016 1.18002 3.41749 0.956682 3.78882L0.205349 5.04216C-0.239318 5.78349 0.116682 6.74549 0.936682 7.01882L4.32402 8.14816C4.91668 8.34549 5.56802 8.10482 5.88935 7.56949ZM2.00535 1.81216V1.81949L2.01668 1.81616L2.00535 1.81216ZM7.33868 15.9368V7.74482L7.03202 8.25549C6.53735 9.07949 5.66935 9.55216 4.75535 9.55216C4.47202 9.55216 4.18468 9.50749 3.90202 9.41282L1.33868 8.55882V11.5975C1.33868 13.0322 2.25668 14.3062 3.61802 14.7595L6.57468 15.7448C6.82402 15.8255 7.08002 15.8915 7.33868 15.9362V15.9368ZM15.8187 5.06416L15.0533 3.78882C14.8307 3.41749 14.3793 3.25016 13.968 3.38749L8.67135 5.15282L10.1213 7.56882C10.4427 8.10482 11.0933 8.34549 11.686 8.14749L15.098 7.01016C15.9053 6.74082 16.256 5.79349 15.818 5.06349L15.8187 5.06416ZM11.2553 9.55282C10.3413 9.55282 9.47335 9.08082 8.97868 8.25616L8.67202 7.74549V15.9335C8.95335 15.8842 9.23202 15.8122 9.49602 15.7242H9.50268L12.3927 14.7602C13.754 14.3062 14.672 13.0328 14.672 11.5982V8.55882L12.1087 9.41349C11.826 9.50816 11.5387 9.55282 11.2553 9.55282Z" fill="#7A3ABF"/>
</g>
<defs>
<clipPath id="clip0_463_9394">
<rect width="16" height="16" fill="white"/>
</clipPath>
</defs>
</svg>
