<svg width="16" height="17" viewBox="0 0 16 17" fill="none" xmlns="http://www.w3.org/2000/svg">
<path d="M1.07134 12.1533C1.62277 13.1104 2.84568 13.4392 3.80274 12.8878C3.8034 12.8874 3.80402 12.887 3.80468 12.8866L4.10134 12.7153C4.66134 13.1944 5.30502 13.566 5.99999 13.8113V14.1533C5.99999 15.2579 6.89543 16.1533 7.99999 16.1533C9.10455 16.1533 9.99999 15.2579 9.99999 14.1533V13.8113C10.6951 13.5656 11.3388 13.1936 11.8986 12.714L12.1966 12.886C13.1539 13.4383 14.3777 13.1099 14.93 12.1526C15.4823 11.1954 15.154 9.97157 14.1966 9.41929L13.9006 9.24863C14.0339 8.5236 14.0339 7.78035 13.9006 7.05529L14.1966 6.88463C15.1539 6.33235 15.4823 5.1086 14.93 4.15129C14.3777 3.19401 13.154 2.86566 12.1966 3.41795L11.9 3.58929C11.3394 3.11076 10.6953 2.73988 9.99999 2.49532V2.15332C9.99999 1.04876 9.10455 0.15332 7.99999 0.15332C6.89543 0.15332 5.99999 1.04876 5.99999 2.15332V2.49532C5.30493 2.74104 4.66121 3.11304 4.10134 3.59266L3.80334 3.42001C2.84602 2.8677 1.62227 3.19604 1.06999 4.15332C0.517711 5.1106 0.846023 6.33438 1.80334 6.88666L2.09934 7.05732C1.96609 7.78235 1.96609 8.5256 2.09934 9.25066L1.80334 9.42132C0.84868 9.97507 0.52143 11.1964 1.07134 12.1533ZM7.99999 5.48666C9.47274 5.48666 10.6666 6.68057 10.6666 8.15332C10.6666 9.62607 9.47274 10.82 7.99999 10.82C6.52724 10.82 5.33334 9.62607 5.33334 8.15332C5.33334 6.68057 6.52724 5.48666 7.99999 5.48666Z" fill="#7A3ABF"/>
</svg>
