<svg width="16" height="17" viewBox="0 0 16 17" fill="none" xmlns="http://www.w3.org/2000/svg">
<g clip-path="url(#clip0_463_9383)">
<path d="M15.998 7.91199L15.9967 9.24533H15.3027C15.1647 10.7673 14.5587 12.1573 13.6307 13.2687L14.1247 13.7633L13.1807 14.7053L12.6874 14.2107C11.5747 15.1373 10.1847 15.7413 8.66205 15.8787V16.5767H7.32871V15.8787C5.80671 15.74 4.41805 15.1347 3.30671 14.2067L2.81071 14.7033L1.86805 13.7607L2.36471 13.264C1.43871 12.152 0.834714 10.7633 0.69738 9.24133H-0.00195312V7.90799H0.698047C0.836047 6.38666 1.44138 4.99733 2.36805 3.88599L1.87138 3.38933L2.81405 2.44666L3.31071 2.94333C4.42205 2.01666 5.81138 1.41199 7.33338 1.27399V0.575993L8.66738 0.577325V1.27399C10.1894 1.41199 11.5794 2.01666 12.6914 2.94399L13.1867 2.44999L14.128 3.39333L13.634 3.88666C14.5614 4.99866 15.1667 6.38866 15.304 7.91199H15.9994H15.998ZM13.9627 9.24399L11.2667 9.24199C11.18 9.66733 11.012 10.064 10.78 10.414L12.6847 12.3213C13.376 11.458 13.8347 10.4 13.9627 9.24399ZM8.66205 14.54C9.81872 14.4127 10.8767 13.9547 11.7407 13.264L9.83671 11.3567C9.48605 11.5893 9.08871 11.7573 8.66205 11.844V14.54ZM7.32871 14.5387V11.842C6.90405 11.7547 6.50871 11.5867 6.15938 11.354L4.25405 13.2593C5.11671 13.9507 6.17405 14.4093 7.32871 14.5387ZM3.31205 12.316L5.21805 10.41C4.98671 10.0607 4.81938 9.66533 4.73338 9.24066H2.03671C2.16471 10.396 2.62205 11.4527 3.31205 12.316ZM2.03805 7.90733H4.73471C4.82138 7.48266 4.98938 7.08799 5.22138 6.73866L3.31538 4.83266C2.62471 5.69533 2.16671 6.75199 2.03805 7.90733ZM4.25805 3.88999L6.16405 5.79599C6.51271 5.56466 6.90671 5.39733 7.33005 5.31066L7.33205 2.61399C6.17738 2.74266 5.12071 3.19999 4.25805 3.89066V3.88999ZM6.00071 8.57599C6.00071 9.67866 6.89805 10.576 8.00072 10.576C9.10338 10.576 10.0007 9.67866 10.0007 8.57599C10.0007 7.47333 9.10338 6.57599 8.00072 6.57599C6.89805 6.57599 6.00071 7.47333 6.00071 8.57599ZM8.66605 2.61333L8.66405 5.30933C9.08938 5.39533 9.48538 5.56332 9.83605 5.79466L11.744 3.88999C10.8807 3.19866 9.82271 2.74133 8.66671 2.61333H8.66605ZM12.686 4.83199L10.7787 6.73599C11.0114 7.08599 11.18 7.48266 11.2667 7.90799L13.9634 7.90999C13.8354 6.75399 13.3774 5.69532 12.686 4.83199Z" fill="#7A3ABF"/>
</g>
<defs>
<clipPath id="clip0_463_9383">
<rect width="16" height="16" fill="white" transform="matrix(1 0 0 -1 0 16.5767)"/>
</clipPath>
</defs>
</svg>
